<svg width="140" height="140" viewBox="0 0 140 140" fill="none" xmlns="http://www.w3.org/2000/svg">
<g clipPath="url(#clip0_1130_1037)">
<path d="M75.5269 8C75.5269 28.7433 75.5269 48.4374 75.5269 68.5057C96.5209 68.5057 117.141 68.5057 138.08 68.5057C138.08 89.4679 138.08 110.056 138.08 131C117.278 131 96.3748 131 74.9427 131C74.9427 111.087 74.9427 90.973 74.9427 69.1899C71.3098 71.0325 68.4162 71.9538 66.1981 73.7235C60.1281 78.5671 56.7782 85.2809 54.4506 92.5329C51.7123 101.08 48.7367 109.363 42.7852 116.478C36.8157 123.62 29.4769 127.981 20.5315 129.413C14.4981 130.38 8.30941 130.334 1.91992 130.763C1.91992 109.983 1.91992 89.9878 1.91992 69.719C4.25665 69.2173 6.57512 68.7703 8.86622 68.2046C17.9484 65.9515 21.8094 58.5446 25.3328 51.0463C29.1665 42.8731 32.0326 34.2073 36.3046 26.2895C42.0367 15.6533 51.8126 10.5541 63.688 9.30444C67.3757 8.90307 71.0725 8.48346 75.5269 8Z" fill="black"/>
</g>
<defs>
<clipPath id="clip0_1130_1037">
<rect width="138" height="123" fill="white" transform="translate(1 8)"/>
</clipPath>
</defs>
</svg>
