<svg width="24" height="24" viewBox="0 0 24 24" fill="none" xmlns="http://www.w3.org/2000/svg">
<path fill-rule="evenodd" clip-rule="evenodd" d="M11.5975 1.18505C11.8633 1.13038 12.1375 1.13038 12.4033 1.18505C12.7105 1.24824 12.9852 1.40207 13.2035 1.52436C13.2239 1.53575 13.2437 1.54687 13.263 1.55761L20.663 5.66872C20.6835 5.68009 20.7046 5.6917 20.7262 5.70359C20.9573 5.8309 21.2479 5.99097 21.4711 6.23315C21.6641 6.44253 21.8101 6.69069 21.8994 6.96105C22.0027 7.27375 22.0015 7.60553 22.0005 7.8694C22.0005 7.89406 22.0004 7.91813 22.0004 7.94153V16.0586C22.0004 16.082 22.0005 16.1061 22.0005 16.1308C22.0015 16.3946 22.0027 16.7264 21.8994 17.0391C21.8101 17.3095 21.6641 17.5576 21.4711 17.767C21.2479 18.0092 20.9573 18.1693 20.7262 18.2966C20.7046 18.3085 20.6835 18.3201 20.663 18.3314L13.263 22.4426C13.2437 22.4533 13.2239 22.4644 13.2035 22.4758C12.9852 22.5981 12.7105 22.7519 12.4033 22.8151C12.1375 22.8698 11.8633 22.8698 11.5975 22.8151C11.2902 22.7519 11.0155 22.5981 10.7972 22.4758C10.7769 22.4644 10.757 22.4533 10.7377 22.4426L3.3377 18.3314C3.31724 18.3201 3.29616 18.3085 3.27456 18.2966C3.04343 18.1693 2.75281 18.0092 2.52964 17.767C2.33668 17.5576 2.19066 17.3095 2.10134 17.0391C1.99802 16.7264 1.99923 16.3946 2.00019 16.1308C2.00028 16.1061 2.00037 16.082 2.00037 16.0586V7.94153C2.00037 7.91813 2.00028 7.89406 2.00019 7.8694C1.99923 7.60553 1.99802 7.27375 2.10134 6.96105C2.19066 6.69069 2.33668 6.44253 2.52964 6.23315C2.75281 5.99097 3.04343 5.8309 3.27456 5.70359C3.29616 5.6917 3.31724 5.68009 3.3377 5.66872L10.7377 1.55761C10.757 1.54687 10.7769 1.53575 10.7972 1.52436C11.0156 1.40207 11.2902 1.24824 11.5975 1.18505Z" fill="#c0c0c0"/>
</svg>
