<svg width="174" height="161" viewBox="0 0 174 161" fill="none" xmlns="http://www.w3.org/2000/svg">
<path d="M172.67 20.4601L138.24 40.3401L103.8 20.4601L138.24 0.580078L172.67 20.4601Z" fill="url(#paint0_linear_132_97)"/>
<path d="M138.24 40.34V80.1L103.8 60.22V20.46L138.24 40.34Z" fill="#BABC5E"/>
<path d="M138.24 80.1V119.87L103.8 99.98V60.22L138.24 80.1Z" fill="#313131"/>
<path d="M138.24 119.87V159.63L103.8 139.75V99.98L138.24 119.87Z" fill="#313131"/>
<path d="M172.67 20.46V60.22L138.24 80.1V40.34L172.67 20.46Z" fill="#898934"/>
<path d="M172.67 60.22V99.98L138.24 119.87V80.1L172.67 60.22Z" fill="#0A0C0E"/>
<path d="M172.67 99.98V139.75L138.24 159.63V119.87L172.67 99.98Z" fill="#0A0C0E"/>
<path d="M34.94 80.0999V99.9799L17.72 109.92V90.0399L34.94 80.0999Z" fill="#898934"/>
<path d="M34.94 80.0999L17.72 90.0399L0.5 80.0999L17.72 70.1599L34.94 80.0999Z" fill="url(#paint1_linear_132_97)"/>
<path d="M17.72 90.0399V109.92L0.5 99.9799V80.0999L17.72 90.0399Z" fill="#BABC5E"/>
<path d="M69.37 99.98L52.15 109.93V90.04L69.37 99.98Z" fill="#313131"/>
<path d="M52.15 129.81V149.69L34.93 139.75V119.87L52.15 129.81Z" fill="#313131"/>
<path d="M69.37 139.75V159.63L52.15 149.69V129.81L69.37 139.75Z" fill="#313131"/>
<path d="M69.37 119.87V139.75L52.15 129.81V109.93L69.37 119.87Z" fill="#313131"/>
<path d="M103.8 119.87V139.75L86.59 149.69V129.81L103.8 119.87Z" fill="#0A0C0E"/>
<path d="M103.8 99.98V119.87L86.59 129.81V109.93L103.8 99.98Z" fill="#0A0C0E"/>
<path d="M86.59 129.81V149.69L69.37 159.63V139.75L86.59 129.81Z" fill="#0A0C0E"/>
<path d="M86.59 109.93V129.81L69.37 139.75V119.87L86.59 109.93Z" fill="#0A0C0E"/>
<defs>
<linearGradient id="paint0_linear_132_97" x1="103.8" y1="20.4601" x2="172.67" y2="20.4601" gradientUnits="userSpaceOnUse">
<stop stop-color="#B8AC9D"/>
<stop offset="0.494063" stop-color="#DBE85F"/>
<stop offset="1" stop-color="#B8AC9D"/>
</linearGradient>
<linearGradient id="paint1_linear_132_97" x1="0.5" y1="80.0999" x2="34.94" y2="80.0999" gradientUnits="userSpaceOnUse">
<stop stop-color="#B8AC9D"/>
<stop offset="0.494063" stop-color="#DBE85F"/>
<stop offset="1" stop-color="#B8AC9D"/>
</linearGradient>
</defs>
</svg>
