<svg width="173" height="165" viewBox="0 0 173 165" fill="none" xmlns="http://www.w3.org/2000/svg">
<g clip-path="url(#clip0_132_625)">
<path d="M171.54 115.89V132.51L157.14 140.83V124.2L171.54 115.89Z" fill="#0A0C0E"/>
<path d="M165.65 112.48L157.14 117.4V100.77L171.54 92.46V109.08L165.65 112.48Z" fill="#898934"/>
<path d="M171.54 68.98V85.61L165.62 89.03L157.14 93.92V77.3L171.54 68.98Z" fill="#0A0C0E"/>
<path d="M171.54 92.46L157.14 100.77L151.22 97.35H151.21V90.5L157.14 93.92L165.62 89.03L165.63 89.04L171.54 92.46Z" fill="#DEE773"/>
<path d="M157.14 124.2V140.83L151.21 137.41V127.63L145.32 124.23L151.21 120.83V120.78H151.22L157.14 124.2Z" fill="#313131"/>
<path d="M157.14 100.77V117.4L151.21 113.98V104.2L145.29 100.78V100.77L151.21 97.3501H151.22L157.14 100.77Z" fill="#BABC5E"/>
<path d="M157.14 77.3V93.92L151.21 90.5V80.73L142.74 75.83V68.98L157.14 77.3Z" fill="#313131"/>
<path d="M151.21 137.41V144.26L136.81 152.57V135.94L151.21 127.63V137.41Z" fill="#898934"/>
<path d="M145.32 124.23L136.81 129.14V112.51L151.21 104.2V113.98V120.78V120.83L145.32 124.23Z" fill="#0A0C0E"/>
<path d="M151.21 90.5V97.35L145.29 100.77L136.81 105.67V89.04L151.21 80.73V90.5Z" fill="#898934"/>
<path d="M130.87 75.8401L136.8 72.4202L136.81 72.4102L142.74 75.8302L151.21 80.7302L136.81 89.0402L122.41 80.7302L130.87 75.8401Z" fill="url(#paint0_linear_132_625)"/>
<path d="M151.21 127.63L136.81 135.94L130.89 132.52L130.88 132.5L130.89 132.49V125.72L136.81 129.14L145.32 124.23L151.21 127.63Z" fill="#DEE773"/>
<path d="M151.19 57.22V64.1L142.74 68.98V75.83L136.81 72.41L136.8 72.42L136.79 72.41V65.53L151.19 57.22Z" fill="#898934"/>
<path d="M130.89 52.3101L136.79 48.9001L151.19 57.2201L136.79 65.5301L122.39 57.2201L130.89 52.3101Z" fill="url(#paint1_linear_132_625)"/>
<path d="M136.81 135.94V152.57L130.89 149.15V139.29L125.09 135.94L125.05 135.86L130.88 132.5L130.89 132.52L136.81 135.94Z" fill="#BABC5E"/>
<path d="M136.81 89.04V105.67L130.89 102.24V92.39L122.41 87.49V80.73L136.81 89.04Z" fill="#BABC5E"/>
<path d="M136.8 72.42L130.87 75.84V68.96L122.39 64.07V57.22L136.79 65.53V72.41L136.8 72.42Z" fill="#BABC5E"/>
<path d="M130.89 149.15V155.92L116.49 164.23V147.6L130.89 139.29V149.15Z" fill="#0A0C0E"/>
<path d="M130.89 125.72V132.49L130.88 132.5L125.05 135.86L116.49 140.8V124.17L130.89 115.86V125.72Z" fill="#898934"/>
<path d="M130.89 102.24V109.01L130.86 109.03L125.03 112.4L116.49 117.33V100.7L130.89 92.3901V102.24Z" fill="#0A0C0E"/>
<path d="M130.89 45.49V52.31L122.39 57.22V64.07L116.49 60.66V60.65V53.81L130.89 45.49Z" fill="#0A0C0E"/>
<path d="M130.89 115.86L116.49 124.17L102.09 115.86L107.88 112.51L107.95 112.39L116.49 117.33L125.03 112.4L125.09 112.51L130.89 115.86Z" fill="#DEE773"/>
<path d="M130.87 68.96V75.84L122.41 80.73V87.49L116.49 84.07L116.48 84.08L116.47 84.07V77.27L130.87 68.96Z" fill="#0A0C0E"/>
<path d="M116.49 147.6V164.23L102.09 155.92V149.1V139.29L116.49 147.6Z" fill="#313131"/>
<path d="M102.09 132.47V125.67V115.86L116.49 124.17V140.8L107.93 135.86L102.09 132.49V132.47Z" fill="#BABC5E"/>
<path d="M116.49 100.7V117.33L107.95 112.39L102.12 109.02H102.11L102.09 109.01V102.2V92.3901L116.49 100.7Z" fill="#313131"/>
<path d="M116.49 60.65V60.66L116.47 60.65L110.56 64.06V57.24L102.08 52.34L102.09 52.33V45.49L116.49 53.81V60.65Z" fill="#313131"/>
<path d="M116.48 84.08L110.58 87.48V80.66L102.07 75.75V68.96L116.47 77.27V84.07L116.48 84.08Z" fill="#313131"/>
<path d="M110.58 80.6602V87.4802V87.4902L102.09 92.3902V102.2H102.07L96.17 105.6V88.9702L110.58 80.6602Z" fill="#898934"/>
<path d="M110.58 32.3801V40.5901L102.09 45.4901V52.3301L102.08 52.3401L96.17 48.9201V40.7001L110.58 32.3801Z" fill="#898934"/>
<path d="M110.58 32.3801L96.17 40.7001L81.77 32.3801L90.23 27.5001L96.17 24.0701L110.58 32.3801Z" fill="url(#paint2_linear_132_625)"/>
<path d="M110.58 80.6601L96.17 88.9701L81.77 80.6601L90.27 75.7501L96.16 72.3401H96.17L102.07 75.7501L110.58 80.6601Z" fill="url(#paint3_linear_132_625)"/>
<path d="M110.56 57.24V64.06L102.07 68.96V75.75L96.17 72.34H96.16V65.55L110.56 57.24Z" fill="#898934"/>
<path d="M110.56 57.2402L96.16 65.5502L81.76 57.2402L90.26 52.3302L96.16 48.9202H96.17L102.08 52.3402L110.56 57.2402Z" fill="url(#paint4_linear_132_625)"/>
<path d="M107.95 112.39L107.88 112.51L102.09 115.86V125.67H102.07L96.17 129.07V112.45L102.11 109.02H102.12L107.95 112.39Z" fill="#0A0C0E"/>
<path d="M107.93 135.86L107.88 135.94L102.09 139.29V149.1H102.07L96.17 152.5V135.88L102.09 132.47V132.49L107.93 135.86Z" fill="#898934"/>
<path d="M102.09 125.67V132.47L96.17 135.88L81.77 127.56L87.66 124.16L96.17 129.07L102.07 125.67H102.09Z" fill="#DEE773"/>
<path d="M96.17 135.88V152.5L81.77 144.19V137.38V127.56L96.17 135.88Z" fill="#BABC5E"/>
<path d="M87.66 124.16L81.77 120.76V120.75V113.95V104.13L96.17 112.45V129.07L87.66 124.16Z" fill="#313131"/>
<path d="M87.69 100.71L81.79 97.3002L81.77 97.2902V90.4802V80.6602L96.17 88.9702V105.6L87.69 100.71Z" fill="#BABC5E"/>
<path d="M96.17 40.7001V48.9201H96.16L90.26 52.3301L90.25 52.3201V44.1301L81.77 39.2301V32.3801L96.17 40.7001Z" fill="#BABC5E"/>
<path d="M96.16 72.34L90.27 75.75V68.94L81.76 64.02V57.24L96.16 65.55V72.34Z" fill="#BABC5E"/>
<path d="M90.27 68.9402V75.7502L81.77 80.6602V90.4802H81.76L75.87 93.8802V77.2502L90.27 68.9402Z" fill="#0A0C0E"/>
<path d="M90.26 52.3301L81.76 57.2401V64.0201L75.87 60.6201L75.86 60.6301L75.85 60.6201V52.4401L90.25 44.1301V52.3201L90.26 52.3301Z" fill="#0A0C0E"/>
<path d="M90.23 20.6201V27.5001L81.77 32.3801V39.2301L75.85 35.8101L75.84 35.8201L75.83 35.8101V28.9301L90.23 20.6201Z" fill="#0A0C0E"/>
<path d="M81.79 97.3L87.69 100.71L81.77 104.13V113.95H81.76L75.87 117.35V100.72L81.79 97.31V97.3Z" fill="#898934"/>
<path d="M87.66 124.16L81.77 127.56V137.38H81.76L75.87 140.78V124.15L81.77 120.75V120.76L87.66 124.16Z" fill="#0A0C0E"/>
<path d="M81.79 97.3V97.31L75.87 100.72L61.47 92.41L67.39 88.99V88.98L75.87 93.88L81.76 90.48H81.77V97.29L81.79 97.3Z" fill="#DEE773"/>
<path d="M75.87 124.15V140.78L61.47 132.47V124.22V115.84L75.87 124.15Z" fill="#313131"/>
<path d="M67.36 112.44L61.47 109.04V107.59V100.79V92.4102L75.87 100.72V117.35L67.36 112.44Z" fill="#BABC5E"/>
<path d="M75.87 77.2502V93.8802L67.39 88.9802L61.47 85.5602V84.1602V77.3202V68.9402L75.87 77.2502Z" fill="#313131"/>
<path d="M75.86 60.6301L69.92 64.0601V55.7901L61.45 50.8901V44.1301L75.85 52.4401V60.6201L75.86 60.6301Z" fill="#313131"/>
<path d="M75.84 35.8201L69.9 39.2501V32.3601L61.43 27.4701V20.6201L75.83 28.9301V35.8101L75.84 35.8201Z" fill="#313131"/>
<path d="M69.92 55.79V64.06L61.47 68.94V77.32H61.43L55.52 80.73V64.1L69.92 55.79Z" fill="#898934"/>
<path d="M69.92 15.7101V15.7201L61.43 20.6201V27.4701L55.52 24.0601V24.0501V17.2101L69.92 8.89014V15.7101Z" fill="#898934"/>
<path d="M69.92 8.89008L55.52 17.2101L41.12 8.89008L55.52 0.580078L69.92 8.89008Z" fill="url(#paint5_linear_132_625)"/>
<path d="M69.92 55.79L55.52 64.1L41.12 55.79L49.61 50.89V50.88L55.51 47.48L55.52 47.47L61.45 50.89L69.92 55.79Z" fill="url(#paint6_linear_132_625)"/>
<path d="M69.9 32.3601V39.2501L61.45 44.1301V50.8901L55.52 47.4701L55.51 47.4801L55.5 47.4701V40.6701L69.9 32.3601Z" fill="#898934"/>
<path d="M49.59 27.46L55.5 24.05L55.52 24.06L61.43 27.47L69.9 32.3601L55.5 40.67L41.1 32.3601L49.59 27.46Z" fill="url(#paint7_linear_132_625)"/>
<path d="M67.39 88.9802V88.9902L61.47 92.4102V100.79H61.43L55.52 104.2V87.5702L61.43 84.1602H61.47V85.5602L67.39 88.9802Z" fill="#0A0C0E"/>
<path d="M67.36 112.44L61.47 115.84V124.22H61.43L55.52 127.63V111L61.43 107.59H61.47V109.04L67.36 112.44Z" fill="#898934"/>
<path d="M61.47 100.79V107.59H61.43L55.52 111L41.12 102.69L47.01 99.29L55.52 104.2L61.43 100.79H61.47Z" fill="#DEE773"/>
<path d="M55.52 111V127.63L41.12 119.32V112.5V102.69L55.52 111Z" fill="#BABC5E"/>
<path d="M41.12 95.87V89.07V79.26L55.52 87.57V104.2L47.01 99.29L41.12 95.89V95.87Z" fill="#313131"/>
<path d="M47.05 75.84L41.14 72.42L41.12 72.41V65.6V55.79L55.52 64.1V80.73L47.05 75.84Z" fill="#BABC5E"/>
<path d="M55.52 24.0501V24.0601L55.5 24.0501L49.59 27.4601V20.6401L41.11 15.7401L41.12 15.7301V8.89014L55.52 17.2101V24.0501Z" fill="#BABC5E"/>
<path d="M55.51 47.4801L49.61 50.8801V44.0601L41.1 39.1401V32.3601L55.5 40.6701V47.4701L55.51 47.4801Z" fill="#BABC5E"/>
<path d="M49.61 44.0601V50.8801V50.8901L41.12 55.7901V65.6001H41.1L35.21 69.0001V52.3701L49.61 44.0601Z" fill="#0A0C0E"/>
<path d="M49.59 20.6401V27.4601L41.1 32.3601V39.1401L35.21 35.7401L35.2 35.7501L35.19 35.7401V28.9501L49.59 20.6401Z" fill="#0A0C0E"/>
<path d="M41.14 72.4202L47.05 75.8402L41.12 79.2602V89.0702H41.1L35.21 92.4702V75.8502L41.13 72.4302L41.14 72.4202Z" fill="#898934"/>
<path d="M47.01 99.2901L41.12 102.69V112.5H41.1L35.21 115.9V99.2801L41.12 95.8701V95.8901L47.01 99.2901Z" fill="#0A0C0E"/>
<path d="M41.14 72.4201L41.13 72.4301L35.21 75.8501L20.81 67.5301L26.73 64.1101L35.21 69.0001L41.1 65.6001H41.12V72.4101L41.14 72.4201Z" fill="#DEE773"/>
<path d="M35.21 99.28V115.9L20.81 107.59V100.78V90.96L35.21 99.28Z" fill="#313131"/>
<path d="M26.7 87.56L20.81 84.16V84.15V77.35V67.53L35.21 75.85V92.47L26.7 87.56Z" fill="#BABC5E"/>
<path d="M26.73 64.1101L20.83 60.7001L20.81 60.6901V53.8801V44.0601L35.21 52.3701V69.0001L26.73 64.1101Z" fill="#313131"/>
<path d="M35.2 35.7501L29.3 39.1501V32.3401L20.79 27.4201V20.6401L35.19 28.9501V35.7401L35.2 35.7501Z" fill="#313131"/>
<path d="M29.3 32.3401V39.1501L20.81 44.0601V53.8801H20.79L14.9 57.2801V40.6501L29.3 32.3401Z" fill="#898934"/>
<path d="M29.3 32.34L14.9 40.65L0.5 32.34L14.9 24.02L20.79 27.42L29.3 32.34Z" fill="url(#paint8_linear_132_625)"/>
<path d="M20.83 60.7002L26.73 64.1102L20.81 67.5302V77.3502H20.79L14.9 80.7502V64.1202L20.82 60.7102L20.83 60.7002Z" fill="#0A0C0E"/>
<path d="M26.7 87.5601L20.81 90.9601V100.78H20.79L14.9 104.18V87.5501L20.81 84.1501V84.1601L26.7 87.5601Z" fill="#898934"/>
<path d="M20.81 77.3501V84.1501L14.9 87.5501L0.5 79.2401L6.39 75.8401L14.9 80.7501L20.79 77.3501H20.81Z" fill="#DEE773"/>
<path d="M14.9 87.55V104.18L0.5 95.87V79.24L14.9 87.55Z" fill="#BABC5E"/>
<path d="M6.39 75.8401L0.5 72.4401V55.8101L14.9 64.1201V80.7501L6.39 75.8401Z" fill="#313131"/>
<path d="M6.43 52.3901L0.5 48.9601V32.3401L14.9 40.6501V57.2801L6.43 52.3901Z" fill="#BABC5E"/>
</g>
<defs>
<linearGradient id="paint0_linear_132_625" x1="122.41" y1="80.7252" x2="151.21" y2="80.7252" gradientUnits="userSpaceOnUse">
<stop stop-color="#B8AC9D"/>
<stop offset="0.494063" stop-color="#DBE85F"/>
<stop offset="1" stop-color="#B8AC9D"/>
</linearGradient>
<linearGradient id="paint1_linear_132_625" x1="122.39" y1="57.2151" x2="151.19" y2="57.2151" gradientUnits="userSpaceOnUse">
<stop stop-color="#B8AC9D"/>
<stop offset="0.494063" stop-color="#DBE85F"/>
<stop offset="1" stop-color="#B8AC9D"/>
</linearGradient>
<linearGradient id="paint2_linear_132_625" x1="81.77" y1="32.3851" x2="110.58" y2="32.3851" gradientUnits="userSpaceOnUse">
<stop stop-color="#B8AC9D"/>
<stop offset="0.494063" stop-color="#DBE85F"/>
<stop offset="1" stop-color="#B8AC9D"/>
</linearGradient>
<linearGradient id="paint3_linear_132_625" x1="81.77" y1="80.6551" x2="110.58" y2="80.6551" gradientUnits="userSpaceOnUse">
<stop stop-color="#B8AC9D"/>
<stop offset="0.494063" stop-color="#DBE85F"/>
<stop offset="1" stop-color="#B8AC9D"/>
</linearGradient>
<linearGradient id="paint4_linear_132_625" x1="81.76" y1="57.2352" x2="110.56" y2="57.2352" gradientUnits="userSpaceOnUse">
<stop stop-color="#B8AC9D"/>
<stop offset="0.494063" stop-color="#DBE85F"/>
<stop offset="1" stop-color="#B8AC9D"/>
</linearGradient>
<linearGradient id="paint5_linear_132_625" x1="41.12" y1="8.89508" x2="69.92" y2="8.89508" gradientUnits="userSpaceOnUse">
<stop stop-color="#B8AC9D"/>
<stop offset="0.494063" stop-color="#DBE85F"/>
<stop offset="1" stop-color="#B8AC9D"/>
</linearGradient>
<linearGradient id="paint6_linear_132_625" x1="41.12" y1="55.785" x2="69.92" y2="55.785" gradientUnits="userSpaceOnUse">
<stop stop-color="#B8AC9D"/>
<stop offset="0.494063" stop-color="#DBE85F"/>
<stop offset="1" stop-color="#B8AC9D"/>
</linearGradient>
<linearGradient id="paint7_linear_132_625" x1="41.1" y1="32.36" x2="69.9" y2="32.36" gradientUnits="userSpaceOnUse">
<stop stop-color="#B8AC9D"/>
<stop offset="0.494063" stop-color="#DBE85F"/>
<stop offset="1" stop-color="#B8AC9D"/>
</linearGradient>
<linearGradient id="paint8_linear_132_625" x1="0.5" y1="32.335" x2="29.3" y2="32.335" gradientUnits="userSpaceOnUse">
<stop stop-color="#B8AC9D"/>
<stop offset="0.494063" stop-color="#DBE85F"/>
<stop offset="1" stop-color="#B8AC9D"/>
</linearGradient>
<clipPath id="clip0_132_625">
<rect width="172.04" height="164.8" fill="white"/>
</clipPath>
</defs>
</svg>
