<svg width="974" height="974" viewBox="0 0 974 974" fill="none" xmlns="http://www.w3.org/2000/svg">
<rect width="974" height="974" rx="487" fill="white"/>
<path d="M193 654.5C193 619.982 220.982 592 255.5 592C290.018 592 318 619.982 318 654.5V742H193V654.5Z" fill="black"/>
<path d="M193 474.5C193 439.982 220.982 412 255.5 412C290.018 412 318 439.982 318 474.5V562H193V474.5Z" fill="black"/>
<path d="M193 294.5C193 259.982 220.982 232 255.5 232C290.018 232 318 259.982 318 294.5V382H193V294.5Z" fill="black"/>
<path d="M502 654C502 619.758 529.758 592 564 592C598.242 592 626 619.758 626 654V742H502V654Z" fill="black"/>
<path d="M502 474C502 439.758 529.758 412 564 412C598.242 412 626 439.758 626 474V562H502V474Z" fill="black"/>
<path d="M348 654C348 619.758 375.758 592 410 592C444.242 592 472 619.758 472 654V742H348V654Z" fill="black"/>
<path d="M348 474C348 439.758 375.758 412 410 412C444.242 412 472 439.758 472 474V562H348V474Z" fill="black"/>
<path d="M348 294C348 259.758 375.758 232 410 232C444.242 232 472 259.758 472 294V382H348V294Z" fill="black"/>
<path d="M656 654.5C656 619.982 683.982 592 718.5 592C753.018 592 781 619.982 781 654.5V742H656V654.5Z" fill="black"/>
</svg>
