<svg fill="none" height="512" viewBox="0 0 512 512" width="512" xmlns="http://www.w3.org/2000/svg"><circle cx="256" cy="256" fill="#0a0b0b" r="256"/><g fill="#c4c6bf"><path d="m380.13 231.674h-113.611v114h113.611z"/><path d="m266.519 120.326c-18.127 1.739-35.447 2.101-51.006 12.68-15.147 11.008-26.273 26.567-31.706 44.345-3.613 13.459-9.201 26.324-16.586 38.186-3.302 5.231-7.867 9.57-13.285 12.631-5.418 3.06-11.52 4.746-17.76 4.905h-4.404v112.601h8.441c18.128-1.738 35.374-2.029 51.007-12.608 15.11-11.06 26.203-26.636 31.632-44.417 6.385-19.709 12.477-38.838 29.871-51.809 3.221-2.004 6.858-3.267 10.641-3.695h3.008z"/></g></svg>