<svg width="768" height="400" viewBox="0 0 768 400" fill="none" xmlns="http://www.w3.org/2000/svg">
<g clip-path="url(#clip0_5480_66554)">
<path d="M410.757 298.372C498.416 274.883 557.695 211.87 543.161 157.627C528.627 103.384 445.782 78.4527 358.123 101.941C270.464 125.429 211.185 188.443 225.719 242.685C240.253 296.928 323.098 321.86 410.757 298.372Z" stroke="#4E4E5F" stroke-width="1.5" stroke-linecap="round" stroke-dasharray="0.01 7"/>
<path d="M419.399 327.845C526.347 298.548 597.388 217.643 578.074 147.14C558.76 76.6376 456.405 43.2343 349.458 72.5319C242.51 101.829 171.469 182.734 190.783 253.237C210.097 323.739 312.452 357.143 419.399 327.845Z" stroke="#4E4E5F" stroke-linecap="round"/>
<path d="M428.233 357.235C554.442 322.021 637.138 223.168 612.94 136.442C588.741 49.7154 466.812 7.95668 340.603 43.1711C214.395 78.3855 131.698 177.238 155.897 263.964C180.095 350.691 302.024 392.45 428.233 357.235Z" stroke="#4E4E5F" stroke-width="1.5" stroke-linecap="round" stroke-dasharray="0.01 7"/>
<path d="M335.239 12.79C481.069 -27.01 621.309 24.61 648.489 128.1C675.659 231.58 579.469 347.74 433.639 387.55C287.809 427.35 147.569 375.73 120.389 272.24C93.2187 168.76 189.409 52.6 335.239 12.79Z" stroke="#4E4E5F" stroke-linecap="round"/>
<path d="M327.618 -16.9299C492.839 -62.1699 652.219 -1.64986 683.599 118.25C714.979 238.15 606.489 372.02 441.269 417.26C276.049 462.5 116.669 401.98 85.2885 282.08C53.9085 162.18 162.398 28.3101 327.618 -16.9299Z" stroke="#4E4E5F" stroke-width="1.5" stroke-linecap="round" stroke-dasharray="0.01 7"/>
<path d="M319.99 -46.65C504.6 -97.33 683.12 -27.91 718.71 108.4C754.31 244.71 633.5 396.3 448.89 446.98C264.28 497.66 85.7602 428.24 50.1702 291.93C14.5702 155.62 135.38 4.03001 319.99 -46.65Z" stroke="#4E4E5F" stroke-linecap="round"/>
<path d="M312.359 -76.37C516.359 -132.49 714.009 -54.17 753.819 98.56C793.629 251.29 660.52 420.59 456.52 476.71C252.52 532.83 54.8695 454.51 15.0595 301.78C-24.7505 149.05 108.359 -20.25 312.359 -76.37Z" stroke="#4E4E5F" stroke-width="1.5" stroke-linecap="round" stroke-dasharray="0.01 7"/>
<path d="M304.74 -106.09C528.13 -167.65 744.92 -80.4299 788.94 88.7101C832.96 257.85 687.55 444.87 464.16 506.43C240.77 567.99 23.98 480.77 -20.04 311.63C-64.06 142.49 81.35 -44.5299 304.74 -106.09Z" stroke="#4E4E5F" stroke-linecap="round"/>
<path d="M297.11 -135.82C539.89 -202.81 775.81 -106.7 824.04 78.8599C872.27 264.42 714.56 469.15 471.77 536.14C228.99 603.13 -6.92974 507.02 -55.1597 321.46C-103.39 135.9 54.3203 -68.8301 297.11 -135.82Z" stroke="#4E4E5F" stroke-width="1.5" stroke-linecap="round" stroke-dasharray="0.01 7"/>
<path d="M289.48 -165.54C551.66 -237.97 806.71 -132.96 859.15 69.0101C911.6 270.98 741.58 493.43 479.4 565.86C217.22 638.29 -37.8299 533.28 -90.2699 331.31C-142.72 129.34 27.3001 -93.1099 289.48 -165.54Z" stroke="#4E4E5F" stroke-linecap="round"/>
<path d="M281.849 -195.26C563.419 -273.13 837.599 -159.22 894.259 59.16C950.919 277.55 768.589 517.71 487.029 595.58C205.459 673.45 -68.7206 559.54 -125.381 341.16C-182.041 122.78 0.289368 -117.39 281.849 -195.26Z" stroke="#4E4E5F" stroke-width="1.5" stroke-linecap="round" stroke-dasharray="0.01 7"/>
<path d="M274.23 -224.98C575.19 -308.29 868.51 -185.48 929.38 49.32C990.25 284.12 795.62 542 494.66 625.31C193.7 708.62 -99.6203 585.81 -160.49 351.01C-221.36 116.21 -26.7303 -141.67 274.23 -224.98Z" stroke="#4E4E5F" stroke-linecap="round"/>
<path d="M266.598 -254.7C586.948 -343.45 899.398 -211.74 964.488 39.4699C1029.58 290.68 822.638 566.28 502.288 655.03C181.938 743.78 -130.512 612.07 -195.602 360.86C-260.682 109.64 -53.7516 -165.95 266.598 -254.7Z" stroke="#4E4E5F" stroke-width="1.5" stroke-linecap="round" stroke-dasharray="0.01 7"/>
<path d="M258.97 -284.42C598.71 -378.61 930.3 -238 999.6 29.6301C1068.89 297.26 849.66 590.57 509.92 684.75C170.18 778.94 -161.41 638.33 -230.7 370.7C-300.01 103.07 -80.7703 -190.23 258.97 -284.42Z" stroke="#4E4E5F" stroke-linecap="round"/>
<path d="M251.35 -314.14C610.48 -413.76 961.2 -264.26 1034.71 19.78C1108.22 303.82 876.67 614.85 517.54 714.47C158.41 814.09 -192.31 664.59 -265.82 380.55C-339.33 96.51 -107.79 -214.52 251.35 -314.14Z" stroke="#4E4E5F" stroke-width="1.5" stroke-linecap="round" stroke-dasharray="0.01 7"/>
<path d="M243.719 -343.86C622.239 -448.92 992.099 -290.52 1069.82 9.92996C1147.54 310.39 903.689 639.13 525.169 744.19C146.649 849.25 -223.211 690.85 -300.931 390.4C-378.651 89.9399 -134.801 -238.8 243.719 -343.86Z" stroke="#4E4E5F" stroke-linecap="round"/>
<path d="M532.339 269.45C533.665 269.45 534.739 268.375 534.739 267.05C534.739 265.725 533.665 264.65 532.339 264.65C531.014 264.65 529.939 265.725 529.939 267.05C529.939 268.375 531.014 269.45 532.339 269.45Z" fill="#4E4E5F"/>
<path d="M532.156 257.19L523.65 272.19H540.65L532.156 257.19Z" stroke="#4E4E5F" stroke-linecap="round"/>
<path d="M47.0602 210.34C48.3856 210.34 49.4601 209.265 49.4601 207.94C49.4601 206.615 48.3856 205.54 47.0602 205.54C45.7347 205.54 44.6602 206.615 44.6602 207.94C44.6602 209.265 45.7347 210.34 47.0602 210.34Z" fill="#4E4E5F"/>
<path d="M46.8734 198.08L38.3789 213.08H55.3789L46.8734 198.08Z" stroke="#4E4E5F" stroke-linecap="round"/>
<path d="M231.769 98.77C233.095 98.77 234.169 97.6955 234.169 96.37C234.169 95.0445 233.095 93.97 231.769 93.97C230.444 93.97 229.369 95.0445 229.369 96.37C229.369 97.6955 230.444 98.77 231.769 98.77Z" fill="#4E4E5F"/>
<path d="M239.27 88.87H224.27V103.87H239.27V88.87Z" stroke="#4E4E5F" stroke-linecap="round"/>
<path d="M720.789 119.63C722.114 119.63 723.189 118.555 723.189 117.23C723.189 115.905 722.114 114.83 720.789 114.83C719.463 114.83 718.389 115.905 718.389 117.23C718.389 118.555 719.463 119.63 720.789 119.63Z" fill="#4E4E5F"/>
<path d="M720.789 125.23C725.207 125.23 728.789 121.648 728.789 117.23C728.789 112.812 725.207 109.23 720.789 109.23C716.371 109.23 712.789 112.812 712.789 117.23C712.789 121.648 716.371 125.23 720.789 125.23Z" stroke="#4E4E5F" stroke-linecap="round"/>
<path d="M215.007 122.87H214.137V115.87H215.007V119.65L218.087 115.87H219.117L216.637 118.92L219.317 122.87H218.277L216.067 119.62L215.007 120.92V122.87ZM220.608 122.87H219.718L222.068 115.87H223.148L225.498 122.87H224.578L223.948 120.98H221.238L220.608 122.87ZM222.588 116.82L221.488 120.19H223.698L222.588 116.82ZM227.089 122.87H226.289V115.87H227.309L228.819 119.28L230.339 115.87H231.329V122.87H230.529V117.29L229.189 120.28H228.439L227.089 117.29V122.87ZM237.24 115.87V116.59H235.44V122.15H237.24V122.87H232.77V122.15H234.57V116.59H232.77V115.87H237.24ZM239.721 122.87H238.891V115.87H239.741L242.701 121.24V115.87H243.531V122.87H242.681L239.721 117.49V122.87ZM247.413 122.93C245.803 122.93 244.813 121.59 244.813 119.37C244.813 117.15 245.803 115.81 247.413 115.81C249.023 115.81 250.013 117.15 250.013 119.37C250.013 121.59 249.023 122.93 247.413 122.93ZM247.413 122.13C248.533 122.13 249.123 121.17 249.123 119.37C249.123 117.57 248.533 116.61 247.413 116.61C246.293 116.61 245.703 117.56 245.703 119.37C245.703 121.18 246.293 122.13 247.413 122.13Z" fill="#4E4E5F"/>
<path d="M35.1078 231.37H34.2178L36.5678 224.37H37.6478L39.9978 231.37H39.0778L38.4478 229.48H35.7378L35.1078 231.37ZM37.0878 225.32L35.9878 228.69H38.1978L37.0878 225.32ZM41.309 231.37H40.419L42.769 224.37H43.849L46.199 231.37H45.279L44.649 229.48H41.939L41.309 231.37ZM43.289 225.32L42.189 228.69H44.399L43.289 225.32ZM50.0102 231.37H49.0102L46.6002 224.37H47.5202L49.5202 230.2L51.5202 224.37H52.4202L50.0102 231.37ZM58.0613 231.37H53.5413V224.37H57.9313V225.17H54.4113V227.41H57.4013V228.21H54.4113V230.57H58.0613V231.37Z" fill="#4E4E5F"/>
</g>
<defs>
<clipPath id="clip0_5480_66554">
<rect width="768" height="400" fill="white"/>
</clipPath>
</defs>
</svg>
