<svg width="195" height="173" viewBox="0 0 195 173" fill="none" xmlns="http://www.w3.org/2000/svg">
<path fill-rule="evenodd" clip-rule="evenodd" d="M101.055 0.42064C102.63 0.285346 104.213 0.14928 105.805 0L105.689 86.6112H103.327C100.357 86.9399 97.5011 87.9095 94.9718 89.4484C81.4209 99.3278 76.6059 113.861 71.6346 128.867L71.5169 129.222C67.2542 142.872 58.5434 154.829 46.6789 163.32C35.832 170.497 23.9953 171.506 11.566 172.565C9.93 172.704 8.28369 172.845 6.62802 173H0V86.556H3.45822C8.35804 86.4341 13.1493 85.1399 17.4037 82.7904C21.658 80.4409 25.2425 77.1092 27.8346 73.0937C33.6339 63.9874 38.0216 54.1109 40.8585 43.7783C45.1249 30.1304 53.8603 18.1855 65.7541 9.73471C76.6051 2.5213 88.5468 1.49531 101.055 0.42064ZM105.805 85.4826H195.013V173H105.805V85.4826Z" fill="#C4C6BF"/>
</svg>
