<svg width="300" height="300" viewBox="0 0 300 300" fill="none" xmlns="http://www.w3.org/2000/svg">
<g clip-path="url(#clip0_108_11)">
<path d="M205.369 100.589C212.419 99.4183 219.396 98.3728 225.826 95.0945C229.405 93.2693 232.892 91.0357 235.885 88.343C235.923 88.3084 235.962 88.2738 236 88.2391C236 88.2391 233.558 89.457 230.506 90.6757C227.884 91.7228 224.812 91.9806 222.034 92.3036C216.097 92.9938 209.782 93.5383 204.561 90.0667C204.903 90.2947 209.016 87.5223 209.34 87.3378C215.507 83.8267 221.621 80.0346 224.707 73.3177C224.707 73.3177 221.044 75.7543 217.381 77.2766C213.718 78.799 206.393 80.6266 206.393 80.6266C206.393 80.6266 211.887 74.2319 213.417 71.1864C214.947 68.1409 217.995 60.2231 217.385 61.4402C216.774 62.6572 215.248 63.267 212.806 65.7035C210.365 68.1401 203.344 71.1848 203.649 70.5759C205.5 66.8803 207.964 63.3644 209.139 59.3749C209.824 57.0487 210.288 54.0588 210.976 52C210.671 52.9134 208.231 55.0455 205.787 58.3947C203.343 61.7438 199.071 65.0946 199.071 65.0946V61.1357C199.071 61.1357 198.766 57.4813 196.019 56.2634C193.271 55.0455 189.914 59.3089 189.914 59.3089C189.914 59.3089 193.883 59.6134 194.188 61.1357C194.493 62.658 190.83 66.008 190.83 66.008L192.051 68.7466C192.051 68.7466 192.051 86.7136 178.315 91.8903C164.579 97.0671 164.885 99.5037 163.663 101.331C161.712 104.252 164.327 108.395 162.829 111.348C162.614 111.774 162.345 112.184 161.96 112.472C160.721 113.402 159.099 113.128 157.86 112.302C157.178 111.675 156.722 110.764 156.263 109.736C154.311 105.368 150.634 97.4127 150.634 97.4127C150.634 97.4127 155.523 95.1614 157.78 94.786C160.036 94.4107 160.036 98.1626 160.036 98.1626L161.167 95.5359C162.297 92.9093 161.167 91.4087 160.791 90.2834C160.414 89.1582 157.781 87.6568 149.131 83.9049C146.323 82.6862 143.136 81.9242 140.08 82.5484C138.913 82.7901 137.2 83.2911 136.447 84.2464C138.254 84.2399 139.956 83.7857 141.812 84.016C143.718 84.2517 145.561 84.8523 147.239 85.7848H140.47C135.581 85.7848 132.196 92.1634 132.196 92.1634L135.209 89.5351C137.748 87.3193 141.076 88.037 143.86 88.0345C142.263 88.0345 140.406 90.6419 139.706 91.8501C137.998 94.7909 138.116 98.1167 138.923 101.32C138.994 101.37 138.969 101.248 138.969 101.166C138.969 99.6656 140.85 98.1642 140.85 98.1642L140.097 102.291C139.345 106.419 140.097 111.297 140.097 110.171C140.097 109.045 142.73 106.794 142.73 106.794V109.421C142.73 109.736 142.656 110.168 142.529 110.679C142.501 110.792 142.465 110.916 142.424 111.047C141.306 112.703 138.791 113.786 137.045 112.474C136.663 112.188 136.391 111.777 136.176 111.351C134.678 108.397 137.293 104.254 135.342 101.333C134.121 99.5053 134.426 97.0696 120.69 91.8928C106.953 86.716 106.952 68.749 106.952 68.749L108.173 66.0104C108.173 66.0104 104.51 62.6605 104.815 61.1381C105.12 59.6158 109.088 59.3113 109.088 59.3113C109.088 59.3113 105.73 55.0479 102.984 56.2658C100.237 57.4837 99.931 61.1381 99.931 61.1381V65.097C99.931 65.097 95.6609 61.7462 93.2186 58.3947C90.7764 55.0431 88.3349 52.9134 88.0297 52C88.7176 54.0588 89.1818 57.0487 89.8665 59.3749C91.0404 63.3644 93.5044 66.8803 95.3565 70.5759C95.6617 71.1848 88.6409 68.1393 86.1995 65.7035C83.758 63.2678 82.2313 62.658 81.6209 61.4402C81.0106 60.2223 84.0632 68.1401 85.5891 71.1864C87.115 74.2327 92.6131 80.6266 92.6131 80.6266C92.6131 80.6266 85.2823 78.7982 81.6193 77.2758C77.9563 75.7535 74.2933 73.3169 74.2933 73.3169C77.3791 80.0338 83.4972 83.8259 89.6598 87.337C89.9827 87.5215 94.1003 90.2931 94.4385 90.0659C89.2182 93.5375 82.9022 92.9938 76.9649 92.3027C74.1868 91.9806 71.1148 91.7212 68.4933 90.6749C65.4423 89.4546 63 88.2383 63 88.2383C63.0379 88.2738 63.0759 88.3084 63.1146 88.3422C66.1083 91.0349 69.5953 93.2693 73.1743 95.0929C79.6041 98.3736 86.5805 99.4183 93.6304 100.589C93.8726 100.63 97.9562 101.575 98.1015 101.333C95.6278 105.447 75.7926 111.635 70.1362 111.856C74.7656 112.45 79.3781 113.085 84.0373 113.427C89.399 113.821 95.2863 114.304 100.546 112.905C109.703 110.469 106.346 111.383 106.346 111.383C105.884 111.508 104.691 114.18 104.392 114.605C102.851 116.804 101.044 118.838 98.8863 120.445C93.9049 124.156 88.6401 127.644 82.8433 129.957C82.6576 130.031 82.5058 130.095 82.4218 130.265C83.2954 130.844 85.0748 130.523 86.067 130.478C94.755 130.089 101.792 126.795 109.175 122.567C110.225 121.964 111.58 121.386 112.452 120.517L113.367 119.604C111.924 122.303 110.864 125.274 110.065 128.217C108.546 133.788 108.797 139.438 109.011 145.157C109.062 146.534 109.064 147.917 109.082 149.295C109.086 149.675 109.153 150.05 109.153 150.431C110.258 148.908 110.968 146.796 111.817 145.081C112.705 143.297 113.6 141.518 114.532 139.756C115.886 137.193 117.204 134.262 119.166 132.088C121.911 129.043 123.744 126.912 123.744 126.912C123.744 126.912 124.049 144.879 125.88 150.664L127.711 156.45C127.86 151.115 127.856 145.419 129.514 140.298C130.455 137.398 132.158 134.643 133.816 132.088C134.681 134.278 135.475 136.507 136.165 138.759C137.387 142.745 136.993 146.053 136.016 150.063C135.451 152.392 134.897 154.901 133.816 157.059C132.595 159.495 138.089 153.709 139.005 152.187C139.92 150.664 143.888 143.051 143.583 139.702C143.278 136.353 145.72 139.397 146.328 141.834C146.936 144.27 148.159 148.534 144.802 154.928C141.445 161.323 130.153 173.506 130.153 173.506L138.394 168.025L133.205 182.946L142.667 171.984L138.088 189.342C138.088 189.342 145.342 177.449 145.72 175.942C145.983 174.891 148.748 193.805 149.5 199C150.251 193.805 153.016 174.891 153.28 175.942C153.658 177.449 160.911 189.342 160.911 189.342L156.332 171.984L165.795 182.946L160.606 168.025L168.847 173.506C168.847 173.506 157.554 161.325 154.196 154.93C150.838 148.535 152.06 144.272 152.67 141.835C153.28 139.399 155.723 136.354 155.415 139.703C155.108 143.053 159.078 150.666 159.994 152.188C160.909 153.711 166.403 159.497 165.183 157.061C164.101 154.903 163.55 152.394 162.982 150.065C162.006 146.055 161.61 142.747 162.833 138.761C163.523 136.506 164.317 134.28 165.183 132.089C166.84 134.645 168.544 137.396 169.484 140.299C171.142 145.421 171.138 151.117 171.287 156.452L173.118 150.666C174.949 144.88 175.254 126.913 175.254 126.913C175.254 126.913 177.085 129.044 179.833 132.09C181.794 134.265 183.112 137.195 184.466 139.757C185.397 141.519 186.297 143.301 187.181 145.083C188.031 146.797 188.741 148.91 189.846 150.433C189.846 150.051 189.912 149.677 189.917 149.297C189.935 147.918 189.937 146.535 189.988 145.159C190.201 139.44 190.452 133.79 188.933 128.219C188.131 125.276 187.076 122.304 185.631 119.605L186.547 120.519C187.418 121.388 188.77 121.968 189.823 122.568C197.206 126.796 204.243 130.091 212.931 130.48C213.923 130.524 215.703 130.846 216.577 130.266C216.496 130.096 216.341 130.033 216.155 129.959C210.358 127.645 205.094 124.159 200.112 120.447C197.954 118.836 196.147 116.805 194.606 114.606C194.307 114.18 193.115 111.508 192.652 111.384C192.652 111.384 189.294 110.471 198.452 112.907C203.712 114.306 209.599 113.823 214.961 113.429C219.62 113.086 224.233 112.452 228.862 111.857C223.203 111.637 203.368 105.449 200.894 101.335C201.042 101.575 205.127 100.63 205.369 100.589Z" fill="white"/>
<path d="M58.7614 215.66L60.2314 229.25C60.2914 229.79 60.3214 230.27 60.3214 230.66C60.3214 231.98 59.9314 232.43 57.8614 232.49V233C59.0014 232.97 60.8914 232.94 62.8414 232.94C64.7914 232.94 66.8014 232.97 68.1214 233V232.49C65.7814 232.4 65.5114 231.65 65.2414 229.25L63.8914 217.01C63.8614 216.71 63.8314 216.26 63.8314 215.96C63.8314 214.22 64.2814 213.41 66.7114 213.41V212.9C65.3014 212.93 64.0114 212.93 62.8714 212.93C61.0414 212.93 59.5714 212.9 58.6414 212.87L54.4414 225.08L50.0914 212.87C49.1014 212.9 47.6314 212.93 46.1014 212.93C44.5714 212.93 42.9814 212.93 41.8114 212.9V213.41C44.1214 213.41 44.6614 214.22 44.6614 215.96C44.6614 216.29 44.6314 216.65 44.6014 217.01L43.0114 229.34C42.7114 231.56 42.1414 232.46 39.9814 232.52V233C41.0914 232.97 42.2014 232.94 43.4614 232.94C44.7214 232.94 46.0714 232.97 47.6314 233V232.49C44.9314 232.4 44.2414 232.07 44.2414 230.39C44.2414 230.03 44.2714 229.52 44.3314 229.04L45.8014 215.57L52.3714 233.06H52.5814L58.7614 215.66ZM82.7513 231.92V231.62L82.5413 231.59C81.9413 231.5 81.7913 231.17 81.7913 230.3V224.75C81.7913 221.57 81.8513 220.07 81.9113 219.08L81.7913 219.02C80.2613 219.5 78.1013 219.98 76.1813 220.13V220.49L76.4813 220.58C77.3213 220.82 77.4113 221.3 77.4113 221.81V230.93C77.0813 230.99 76.5413 230.99 76.3313 230.99C74.4113 230.99 73.9613 229.85 73.9613 227.06V224.75C73.9613 221.57 74.0213 220.07 74.0813 219.08L73.9613 219.02C72.4313 219.5 70.2413 219.98 68.3213 220.13V220.49L68.6213 220.58C69.4613 220.82 69.5513 221.3 69.5513 221.81V229.37C69.5513 231.59 70.7513 233.3 72.7913 233.3C74.2613 233.3 76.1813 232.22 77.4113 231.2C77.3813 232.04 77.3213 232.7 77.2313 233.24L77.3513 233.3C78.7013 232.85 81.1913 232.31 82.7513 231.92ZM90.4292 232.55L90.2492 232.52C89.4092 232.37 89.4092 232.22 89.4092 229.88V215.93C89.4092 213.47 89.4992 211.43 89.5592 210.8L89.4092 210.74C88.0892 211.25 85.3892 212.09 83.8892 212.42V212.57L84.6692 213.68C85.0292 214.19 85.0292 214.58 85.0292 214.97V229.88C85.0292 232.22 85.0292 232.37 84.1892 232.52L84.0092 232.55V233C84.6692 232.97 85.9592 232.94 87.2192 232.94C88.5092 232.94 89.7692 232.97 90.4292 233V232.55ZM96.5004 233.3C98.8104 233.3 100.73 231.71 101.78 229.94L101.66 229.79C100.79 230.3 100.01 230.42 99.2304 230.42C98.0004 230.42 96.9204 230.24 96.9204 229.01V221L100.58 221.06C100.94 220.76 101.48 219.71 101.48 219.2L96.9204 219.35C96.9204 218.45 97.0404 216.83 97.1004 216.32L96.9204 216.23C95.4804 217.64 92.9904 219.5 91.3404 220.49V220.61L92.5704 222.14C92.5404 223.61 92.5404 226.52 92.5404 230.24C92.5404 232.07 94.2204 233.3 96.5004 233.3ZM108.281 214.49C108.281 213.08 107.171 212.06 105.881 212.06C104.591 212.06 103.481 213.08 103.481 214.49C103.481 215.9 104.591 216.92 105.881 216.92C107.171 216.92 108.281 215.9 108.281 214.49ZM108.941 232.55L108.761 232.52C107.921 232.37 107.921 232.22 107.921 229.88V223.43C107.921 220.97 107.981 219.5 108.041 218.87L107.891 218.81C106.631 219.41 104.051 220.4 102.551 220.85V221L103.181 222.08C103.541 222.65 103.541 222.98 103.541 223.37V229.88C103.541 232.22 103.541 232.37 102.701 232.52L102.521 232.55V233C103.181 232.97 104.471 232.94 105.731 232.94C107.021 232.94 108.281 232.97 108.941 233V232.55ZM110.058 226.7C110.058 230.66 112.788 233.3 116.568 233.3C119.028 233.3 121.548 231.56 122.388 228.98L122.238 228.89C121.398 229.94 120.288 230.36 119.208 230.36C116.238 230.36 114.348 228.11 114.348 224.51C114.348 221.93 115.638 219.89 117.318 219.89C118.968 219.89 118.278 222.95 120.468 222.95C121.278 222.95 122.088 222.26 122.088 221.39C122.088 219.68 119.808 218.9 117.978 218.9C113.958 218.9 110.058 222.11 110.058 226.7ZM130.932 218.9C126.942 218.9 123.252 221.9 123.252 226.19C123.252 230.42 126.942 233.3 130.932 233.3C134.952 233.3 138.642 230.3 138.642 226.01C138.642 221.78 134.952 218.9 130.932 218.9ZM130.932 232.64C129.102 232.64 128.142 229.58 128.142 225.83C128.142 221.9 129.102 219.56 130.932 219.56C132.792 219.56 133.752 222.62 133.752 226.37C133.752 230.3 132.792 232.64 130.932 232.64ZM145.695 214.49C145.695 213.08 144.585 212.06 143.295 212.06C142.005 212.06 140.895 213.08 140.895 214.49C140.895 215.9 142.005 216.92 143.295 216.92C144.585 216.92 145.695 215.9 145.695 214.49ZM146.355 232.55L146.175 232.52C145.335 232.37 145.335 232.22 145.335 229.88V223.43C145.335 220.97 145.395 219.5 145.455 218.87L145.305 218.81C144.045 219.41 141.465 220.4 139.965 220.85V221L140.595 222.08C140.955 222.65 140.955 222.98 140.955 223.37V229.88C140.955 232.22 140.955 232.37 140.115 232.52L139.935 232.55V233C140.595 232.97 141.885 232.94 143.145 232.94C144.435 232.94 145.695 232.97 146.355 233V232.55ZM162.112 232.55L161.932 232.52C161.092 232.37 161.092 232.22 161.092 229.88V222.83C161.092 220.55 159.622 218.9 157.702 218.9C156.142 218.9 154.252 220.28 152.992 221.27C153.022 220.55 153.052 219.41 153.112 218.87L152.962 218.81C151.702 219.41 149.122 220.4 147.622 220.85V221L148.252 222.08C148.612 222.65 148.612 222.98 148.612 223.37V229.88C148.612 232.22 148.612 232.37 147.772 232.52L147.592 232.55V233C148.252 232.97 149.542 232.94 150.802 232.94C152.092 232.94 153.352 232.97 154.012 233V232.55L153.832 232.52C152.992 232.37 152.992 232.22 152.992 229.88V221.66C153.442 221.48 153.922 221.45 154.222 221.45C156.052 221.45 156.712 223.19 156.712 225.86V229.88C156.712 232.22 156.712 232.37 155.872 232.52L155.692 232.55V233C156.352 232.97 157.642 232.94 158.902 232.94C160.192 232.94 161.452 232.97 162.112 233V232.55ZM181.924 230.63C177.844 230.63 174.664 227.15 174.664 221.84C174.664 216.74 177.514 213.71 181.084 213.71C182.884 213.71 184.204 214.46 185.164 215.57C186.004 216.5 186.754 217.94 187.294 219.41L187.594 219.23L186.904 214.1C184.954 213.14 183.214 212.6 180.904 212.6C174.874 212.6 169.324 216.71 169.324 223.34C169.324 229.58 174.394 233.3 179.854 233.3C182.644 233.3 185.344 232.25 187.264 230.36L188.524 226.79L188.194 226.64C186.814 229.46 184.684 230.63 181.924 230.63ZM189.545 229.97C189.545 231.92 190.865 233.18 192.725 233.18C194.315 233.18 195.365 231.86 196.055 230.99C196.595 232.31 197.645 233.21 199.415 233.21C201.095 233.21 202.415 231.65 202.565 230.3L202.475 230.24C202.235 230.42 201.935 230.6 201.485 230.6C200.705 230.6 200.345 230.21 200.345 229.25C200.345 227.42 200.495 224.06 200.495 221.96C200.495 219.65 197.855 218.9 196.145 218.9C193.085 218.9 189.785 222.35 189.785 224.36C189.785 224.6 189.875 224.69 189.995 224.69C190.445 224.69 192.245 224.33 192.665 224.21C192.515 223.67 192.395 222.92 192.395 222.26C192.395 221.42 192.755 221 193.625 221C195.395 221 196.115 222.14 196.115 223.13V225.56L192.095 227.27C190.505 227.96 189.545 228.41 189.545 229.97ZM196.085 226.07L196.055 230.66C195.875 230.72 195.725 230.75 195.515 230.75C194.525 230.75 193.835 230.12 193.835 228.83C193.835 227.93 194.255 227.45 194.825 227.03L196.085 226.07ZM210.826 239.9L209.536 239.81C208.726 239.75 208.696 239.6 208.696 237.26V232.82C209.626 233.15 210.316 233.3 211.276 233.3C215.026 233.3 218.956 230.42 218.956 225.14C218.956 221.42 216.766 218.9 213.556 218.9C211.426 218.9 209.686 220.49 208.696 221.33C208.696 220.7 208.756 219.44 208.816 218.87L208.666 218.81C207.406 219.41 204.826 220.43 203.326 220.85V221L203.956 222.08C204.316 222.65 204.316 222.98 204.316 223.37V237.29C204.316 239.63 204.316 239.78 203.476 239.93L203.296 239.96V240.41C204.136 240.38 205.216 240.35 206.656 240.35C208.096 240.35 209.866 240.38 210.826 240.41V239.9ZM208.696 228.38V221.6C209.146 221.48 209.686 221.45 210.136 221.45C212.596 221.45 214.216 223.67 214.216 226.85C214.216 230.3 212.956 232.4 211.036 232.4C209.566 232.4 208.696 231.35 208.696 228.38ZM226.003 214.49C226.003 213.08 224.893 212.06 223.603 212.06C222.313 212.06 221.203 213.08 221.203 214.49C221.203 215.9 222.313 216.92 223.603 216.92C224.893 216.92 226.003 215.9 226.003 214.49ZM226.663 232.55L226.483 232.52C225.643 232.37 225.643 232.22 225.643 229.88V223.43C225.643 220.97 225.703 219.5 225.763 218.87L225.613 218.81C224.353 219.41 221.773 220.4 220.273 220.85V221L220.903 222.08C221.263 222.65 221.263 222.98 221.263 223.37V229.88C221.263 232.22 221.263 232.37 220.423 232.52L220.243 232.55V233C220.903 232.97 222.193 232.94 223.453 232.94C224.743 232.94 226.003 232.97 226.663 233V232.55ZM232.73 233.3C235.04 233.3 236.96 231.71 238.01 229.94L237.89 229.79C237.02 230.3 236.24 230.42 235.46 230.42C234.23 230.42 233.15 230.24 233.15 229.01V221L236.81 221.06C237.17 220.76 237.71 219.71 237.71 219.2L233.15 219.35C233.15 218.45 233.27 216.83 233.33 216.32L233.15 216.23C231.71 217.64 229.22 219.5 227.57 220.49V220.61L228.8 222.14C228.77 223.61 228.77 226.52 228.77 230.24C228.77 232.07 230.45 233.3 232.73 233.3ZM238.777 229.97C238.777 231.92 240.097 233.18 241.957 233.18C243.547 233.18 244.597 231.86 245.287 230.99C245.827 232.31 246.877 233.21 248.647 233.21C250.327 233.21 251.647 231.65 251.797 230.3L251.707 230.24C251.467 230.42 251.167 230.6 250.717 230.6C249.937 230.6 249.577 230.21 249.577 229.25C249.577 227.42 249.727 224.06 249.727 221.96C249.727 219.65 247.087 218.9 245.377 218.9C242.317 218.9 239.017 222.35 239.017 224.36C239.017 224.6 239.107 224.69 239.227 224.69C239.677 224.69 241.477 224.33 241.897 224.21C241.747 223.67 241.627 222.92 241.627 222.26C241.627 221.42 241.987 221 242.857 221C244.627 221 245.347 222.14 245.347 223.13V225.56L241.327 227.27C239.737 227.96 238.777 228.41 238.777 229.97ZM245.317 226.07L245.287 230.66C245.107 230.72 244.957 230.75 244.747 230.75C243.757 230.75 243.067 230.12 243.067 228.83C243.067 227.93 243.487 227.45 244.057 227.03L245.317 226.07ZM258.887 232.55L258.707 232.52C257.867 232.37 257.867 232.22 257.867 229.88V215.93C257.867 213.47 257.957 211.43 258.017 210.8L257.867 210.74C256.547 211.25 253.847 212.09 252.347 212.42V212.57L253.127 213.68C253.487 214.19 253.487 214.58 253.487 214.97V229.88C253.487 232.22 253.487 232.37 252.647 232.52L252.467 232.55V233C253.127 232.97 254.417 232.94 255.677 232.94C256.967 232.94 258.227 232.97 258.887 233V232.55Z" fill="white"/>
</g>
<defs>
<clipPath id="clip0_108_11">
<rect width="300" height="300" fill="white"/>
</clipPath>
</defs>
</svg>
