<svg width="112" height="148" viewBox="0 0 112 148" fill="none" xmlns="http://www.w3.org/2000/svg">
<g clip-path="url(#clip0_132_283)">
<path d="M110.59 32.3801L96.19 40.7001L81.79 32.3801L90.24 27.5001L96.19 24.0701L110.59 32.3801Z" fill="url(#paint0_linear_132_283)"/>
<path d="M69.93 55.79L55.53 64.1L41.13 55.79L49.62 50.89V50.88L55.52 47.48L55.53 47.47L61.46 50.89L69.93 55.79Z" fill="url(#paint1_linear_132_283)"/>
<path d="M29.31 32.34L14.91 40.65L0.509995 32.34L14.91 24.02L20.8 27.42L29.31 32.34Z" fill="url(#paint2_linear_132_283)"/>
<path d="M69.93 8.89008L55.53 17.2101L41.13 8.89008L55.53 0.580078L69.93 8.89008Z" fill="url(#paint3_linear_132_283)"/>
<path d="M110.6 98.85L55.55 130.64L0.5 98.85L14.9 90.53L55.55 114L96.2 90.53L110.6 98.85Z" fill="#121416"/>
<path d="M110.6 65.5801L55.55 97.3601L0.5 65.5801L14.89 57.2701L14.91 57.2801L20.8 53.8801H20.82V60.6901L35.22 69.0001L41.11 65.6001H41.13V72.4101L55.53 80.7301L69.93 72.4101V65.6401L75.86 69.0701L90.26 60.7601V53.9001L96.19 57.3201L96.25 57.2901L110.6 65.5801Z" fill="#121416"/>
<path d="M75.86 52.4401V69.0701L69.93 65.6401V55.7901L61.46 50.8901V44.1301L75.86 52.4401Z" fill="#313131"/>
<path d="M96.19 40.7001V57.3201L90.26 53.9001V44.1301L81.79 39.2401V32.3801L96.19 40.7001Z" fill="#BABC5E"/>
<path d="M75.85 35.8201L69.91 39.2501V32.3601L61.44 27.4701V20.6201L75.84 28.9301V35.8101L75.85 35.8201Z" fill="#313131"/>
<path d="M55.53 24.0501V24.0601L55.51 24.0501L49.61 27.4501V20.6401L41.12 15.7401L41.13 15.7301V8.89014L55.53 17.2101V24.0501Z" fill="#BABC5E"/>
<path d="M35.21 35.7501L29.31 39.1501V32.3401L20.8 27.4201V20.6401L35.2 28.9501V35.7401L35.21 35.7501Z" fill="#313131"/>
<path d="M55.53 64.1V80.73L41.13 72.41V65.6V55.79L55.53 64.1Z" fill="#BABC5E"/>
<path d="M35.22 52.3701V69.0001L20.82 60.6901V53.8801V44.0601L35.22 52.3701Z" fill="#313131"/>
<path d="M14.89 57.2701L0.509995 48.9601V32.3401L14.91 40.6501V57.2801L14.89 57.2701Z" fill="#BABC5E"/>
<path d="M55.55 130.64V147.28L0.5 115.49V98.8501L55.55 130.64Z" fill="#313131"/>
<path d="M55.55 97.3601V114L14.9 90.5301L0.5 82.2201V65.5801L55.55 97.3601Z" fill="#313131"/>
<path d="M110.6 98.8501V115.49L55.55 147.28V130.64L110.6 98.8501Z" fill="#0A0C0E"/>
<path d="M96.2 90.5301L55.55 114V97.3601L110.6 65.5801V82.2201L96.2 90.5301Z" fill="#0A0C0E"/>
<path d="M96.25 57.2901L96.19 57.3201V40.7001L110.59 32.3801V49.0101L96.25 57.2901Z" fill="#898934"/>
<path d="M90.26 53.9001V60.7601L75.86 69.0701V52.4401L90.26 44.1301V53.9001Z" fill="#0A0C0E"/>
<path d="M90.24 20.6201V27.5001L81.79 32.3801V39.2401L75.86 35.8101L75.85 35.8201L75.84 35.8101V28.9301L90.24 20.6201Z" fill="#0A0C0E"/>
<path d="M69.93 65.64V72.41L55.53 80.73V64.1L69.93 55.79V65.64Z" fill="#898934"/>
<path d="M69.93 15.7101V15.7201L61.44 20.6201V27.4701L55.53 24.0601V24.0501V17.2101L69.93 8.89014V15.7101Z" fill="#898934"/>
<path d="M69.91 32.3601V39.2501L61.46 44.1301V50.8901L55.53 47.4701L55.52 47.4801L55.51 47.4701V40.6801L69.91 32.3601Z" fill="#898934"/>
<path d="M49.61 27.4501L55.51 24.05L55.53 24.06L61.44 27.47L69.91 32.3601L55.51 40.68L41.11 32.3601L49.61 27.4501Z" fill="url(#paint4_linear_132_283)"/>
<path d="M55.52 47.4801L49.62 50.8801V44.0601L41.11 39.1501V39.1401V32.3601L55.51 40.6801V47.4701L55.52 47.4801Z" fill="#BABC5E"/>
<path d="M49.62 44.0601V50.8801V50.8901L41.13 55.7901V65.6001H41.11L35.22 69.0001V52.3701L49.62 44.0601Z" fill="#0A0C0E"/>
<path d="M49.61 20.6401V27.4501L41.11 32.3601V39.1401L35.22 35.7401L35.21 35.7501L35.2 35.7401V28.9501L49.61 20.6401Z" fill="#0A0C0E"/>
<path d="M29.31 32.3401V39.1501L20.82 44.0601V53.8801H20.8L14.91 57.2801V40.6501L29.31 32.3401Z" fill="#898934"/>
</g>
<defs>
<linearGradient id="paint0_linear_132_283" x1="81.79" y1="32.3851" x2="110.59" y2="32.3851" gradientUnits="userSpaceOnUse">
<stop stop-color="#B8AC9D"/>
<stop offset="0.494063" stop-color="#DBE85F"/>
<stop offset="1" stop-color="#B8AC9D"/>
</linearGradient>
<linearGradient id="paint1_linear_132_283" x1="41.13" y1="55.785" x2="69.93" y2="55.785" gradientUnits="userSpaceOnUse">
<stop stop-color="#B8AC9D"/>
<stop offset="0.494063" stop-color="#DBE85F"/>
<stop offset="1" stop-color="#B8AC9D"/>
</linearGradient>
<linearGradient id="paint2_linear_132_283" x1="0.509995" y1="32.335" x2="29.31" y2="32.335" gradientUnits="userSpaceOnUse">
<stop stop-color="#B8AC9D"/>
<stop offset="0.494063" stop-color="#DBE85F"/>
<stop offset="1" stop-color="#B8AC9D"/>
</linearGradient>
<linearGradient id="paint3_linear_132_283" x1="41.13" y1="8.89508" x2="69.93" y2="8.89508" gradientUnits="userSpaceOnUse">
<stop stop-color="#B8AC9D"/>
<stop offset="0.494063" stop-color="#DBE85F"/>
<stop offset="1" stop-color="#B8AC9D"/>
</linearGradient>
<linearGradient id="paint4_linear_132_283" x1="41.11" y1="32.365" x2="69.91" y2="32.365" gradientUnits="userSpaceOnUse">
<stop stop-color="#B8AC9D"/>
<stop offset="0.494063" stop-color="#DBE85F"/>
<stop offset="1" stop-color="#B8AC9D"/>
</linearGradient>
<clipPath id="clip0_132_283">
<rect width="111.1" height="147.85" fill="white"/>
</clipPath>
</defs>
</svg>
