<svg width="200" height="200" viewBox="0 0 200 200" fill="none" xmlns="http://www.w3.org/2000/svg">
<rect width="200" height="200" fill="url(#paint0_radial_4011_7620)"/>
<g clip-path="url(#clip0_4011_7620)">
<path d="M185.54 133.89V150.51L171.14 158.83V142.2L185.54 133.89Z" fill="#0A0C0E"/>
<path d="M179.65 130.48L171.14 135.4V118.77L185.54 110.46V127.08L179.65 130.48Z" fill="#898934"/>
<path d="M185.54 86.98V103.61L179.62 107.03L171.14 111.92V95.3L185.54 86.98Z" fill="#0A0C0E"/>
<path d="M185.54 110.46L171.14 118.77L165.22 115.35H165.21V108.5L171.14 111.92L179.62 107.03L179.63 107.04L185.54 110.46Z" fill="#DEE773"/>
<path d="M171.14 142.2V158.83L165.21 155.41V145.63L159.32 142.23L165.21 138.83V138.78H165.22L171.14 142.2Z" fill="#313131"/>
<path d="M171.14 118.77V135.4L165.21 131.98V122.2L159.29 118.78V118.77L165.21 115.35H165.22L171.14 118.77Z" fill="#BABC5E"/>
<path d="M171.14 95.3V111.92L165.21 108.5V98.73L156.74 93.83V86.98L171.14 95.3Z" fill="#313131"/>
<path d="M165.21 155.41V162.26L150.81 170.57V153.94L165.21 145.63V155.41Z" fill="#898934"/>
<path d="M159.32 142.23L150.81 147.14V130.51L165.21 122.2V131.98V138.78V138.83L159.32 142.23Z" fill="#0A0C0E"/>
<path d="M165.21 108.5V115.35L159.29 118.77L150.81 123.67V107.04L165.21 98.73V108.5Z" fill="#898934"/>
<path d="M144.87 93.8401L150.8 90.4202L150.81 90.4102L156.74 93.8302L165.21 98.7302L150.81 107.04L136.41 98.7302L144.87 93.8401Z" fill="url(#paint1_linear_4011_7620)"/>
<path d="M165.21 145.63L150.81 153.94L144.89 150.52L144.88 150.5L144.89 150.49V143.72L150.81 147.14L159.32 142.23L165.21 145.63Z" fill="#DEE773"/>
<path d="M165.19 75.22V82.1L156.74 86.98V93.83L150.81 90.41L150.8 90.42L150.79 90.41V83.53L165.19 75.22Z" fill="#898934"/>
<path d="M144.89 70.3101L150.79 66.9001L165.19 75.2201L150.79 83.5301L136.39 75.2201L144.89 70.3101Z" fill="url(#paint2_linear_4011_7620)"/>
<path d="M150.81 153.94V170.57L144.89 167.15V157.29L139.09 153.94L139.05 153.86L144.88 150.5L144.89 150.52L150.81 153.94Z" fill="#BABC5E"/>
<path d="M150.81 107.04V123.67L144.89 120.24V110.39L136.41 105.49V98.73L150.81 107.04Z" fill="#BABC5E"/>
<path d="M150.8 90.42L144.87 93.84V86.96L136.39 82.07V75.22L150.79 83.53V90.41L150.8 90.42Z" fill="#BABC5E"/>
<path d="M144.89 167.15V173.92L130.49 182.23V165.6L144.89 157.29V167.15Z" fill="#0A0C0E"/>
<path d="M144.89 143.72V150.49L144.88 150.5L139.05 153.86L130.49 158.8V142.17L144.89 133.86V143.72Z" fill="#898934"/>
<path d="M144.89 120.24V127.01L144.86 127.03L139.03 130.4L130.49 135.33V118.7L144.89 110.39V120.24Z" fill="#0A0C0E"/>
<path d="M144.89 63.49V70.31L136.39 75.22V82.07L130.49 78.66V78.65V71.81L144.89 63.49Z" fill="#0A0C0E"/>
<path d="M144.89 133.86L130.49 142.17L116.09 133.86L121.88 130.51L121.95 130.39L130.49 135.33L139.03 130.4L139.09 130.51L144.89 133.86Z" fill="#DEE773"/>
<path d="M144.87 86.96V93.84L136.41 98.73V105.49L130.49 102.07L130.48 102.08L130.47 102.07V95.27L144.87 86.96Z" fill="#0A0C0E"/>
<path d="M130.49 165.6V182.23L116.09 173.92V167.1V157.29L130.49 165.6Z" fill="#313131"/>
<path d="M116.09 150.47V143.67V133.86L130.49 142.17V158.8L121.93 153.86L116.09 150.49V150.47Z" fill="#BABC5E"/>
<path d="M130.49 118.7V135.33L121.95 130.39L116.12 127.02H116.11L116.09 127.01V120.2V110.39L130.49 118.7Z" fill="#313131"/>
<path d="M130.49 78.65V78.66L130.47 78.65L124.56 82.06V75.24L116.08 70.34L116.09 70.33V63.49L130.49 71.81V78.65Z" fill="#313131"/>
<path d="M130.48 102.08L124.58 105.48V98.66L116.07 93.75V86.96L130.47 95.27V102.07L130.48 102.08Z" fill="#313131"/>
<path d="M124.58 98.6602V105.48V105.49L116.09 110.39V120.2H116.07L110.17 123.6V106.97L124.58 98.6602Z" fill="#898934"/>
<path d="M124.58 50.3801V58.5901L116.09 63.4901V70.3301L116.08 70.3401L110.17 66.9201V58.7001L124.58 50.3801Z" fill="#898934"/>
<path d="M124.58 50.3801L110.17 58.7001L95.77 50.3801L104.23 45.5001L110.17 42.0701L124.58 50.3801Z" fill="url(#paint3_linear_4011_7620)"/>
<path d="M124.58 98.6601L110.17 106.97L95.77 98.6601L104.27 93.7501L110.16 90.3401H110.17L116.07 93.7501L124.58 98.6601Z" fill="url(#paint4_linear_4011_7620)"/>
<path d="M124.56 75.24V82.06L116.07 86.96V93.75L110.17 90.34H110.16V83.55L124.56 75.24Z" fill="#898934"/>
<path d="M124.56 75.2402L110.16 83.5502L95.76 75.2402L104.26 70.3302L110.16 66.9202H110.17L116.08 70.3402L124.56 75.2402Z" fill="url(#paint5_linear_4011_7620)"/>
<path d="M121.95 130.39L121.88 130.51L116.09 133.86V143.67H116.07L110.17 147.07V130.45L116.11 127.02H116.12L121.95 130.39Z" fill="#0A0C0E"/>
<path d="M121.93 153.86L121.88 153.94L116.09 157.29V167.1H116.07L110.17 170.5V153.88L116.09 150.47V150.49L121.93 153.86Z" fill="#898934"/>
<path d="M116.09 143.67V150.47L110.17 153.88L95.77 145.56L101.66 142.16L110.17 147.07L116.07 143.67H116.09Z" fill="#DEE773"/>
<path d="M110.17 153.88V170.5L95.77 162.19V155.38V145.56L110.17 153.88Z" fill="#BABC5E"/>
<path d="M101.66 142.16L95.77 138.76V138.75V131.95V122.13L110.17 130.45V147.07L101.66 142.16Z" fill="#313131"/>
<path d="M101.69 118.71L95.79 115.3L95.77 115.29V108.48V98.6602L110.17 106.97V123.6L101.69 118.71Z" fill="#BABC5E"/>
<path d="M110.17 58.7001V66.9201H110.16L104.26 70.3301L104.25 70.3201V62.1301L95.77 57.2301V50.3801L110.17 58.7001Z" fill="#BABC5E"/>
<path d="M110.16 90.34L104.27 93.75V86.94L95.76 82.02V75.24L110.16 83.55V90.34Z" fill="#BABC5E"/>
<path d="M104.27 86.9402V93.7502L95.77 98.6602V108.48H95.76L89.87 111.88V95.2502L104.27 86.9402Z" fill="#0A0C0E"/>
<path d="M104.26 70.3301L95.76 75.2401V82.0201L89.87 78.6201L89.86 78.6301L89.85 78.6201V70.4401L104.25 62.1301V70.3201L104.26 70.3301Z" fill="#0A0C0E"/>
<path d="M104.23 38.6201V45.5001L95.77 50.3801V57.2301L89.85 53.8101L89.84 53.8201L89.83 53.8101V46.9301L104.23 38.6201Z" fill="#0A0C0E"/>
<path d="M95.79 115.3L101.69 118.71L95.77 122.13V131.95H95.76L89.87 135.35V118.72L95.79 115.31V115.3Z" fill="#898934"/>
<path d="M101.66 142.16L95.77 145.56V155.38H95.76L89.87 158.78V142.15L95.77 138.75V138.76L101.66 142.16Z" fill="#0A0C0E"/>
<path d="M95.79 115.3V115.31L89.87 118.72L75.47 110.41L81.39 106.99V106.98L89.87 111.88L95.76 108.48H95.77V115.29L95.79 115.3Z" fill="#DEE773"/>
<path d="M89.87 142.15V158.78L75.47 150.47V142.22V133.84L89.87 142.15Z" fill="#313131"/>
<path d="M81.36 130.44L75.47 127.04V125.59V118.79V110.41L89.87 118.72V135.35L81.36 130.44Z" fill="#BABC5E"/>
<path d="M89.87 95.2502V111.88L81.39 106.98L75.47 103.56V102.16V95.3202V86.9402L89.87 95.2502Z" fill="#313131"/>
<path d="M89.86 78.6301L83.92 82.0601V73.7901L75.45 68.8901V62.1301L89.85 70.4401V78.6201L89.86 78.6301Z" fill="#313131"/>
<path d="M89.84 53.8201L83.9 57.2501V50.3601L75.43 45.4701V38.6201L89.83 46.9301V53.8101L89.84 53.8201Z" fill="#313131"/>
<path d="M83.92 73.79V82.06L75.47 86.94V95.32H75.43L69.52 98.73V82.1L83.92 73.79Z" fill="#898934"/>
<path d="M83.92 33.7101V33.7201L75.43 38.6201V45.4701L69.52 42.0601V42.0501V35.2101L83.92 26.8901V33.7101Z" fill="#898934"/>
<path d="M83.92 26.8901L69.52 35.2101L55.12 26.8901L69.52 18.5801L83.92 26.8901Z" fill="url(#paint6_linear_4011_7620)"/>
<path d="M83.92 73.79L69.52 82.1L55.12 73.79L63.61 68.89V68.88L69.51 65.48L69.52 65.47L75.45 68.89L83.92 73.79Z" fill="url(#paint7_linear_4011_7620)"/>
<path d="M83.9 50.3601V57.2501L75.45 62.1301V68.8901L69.52 65.4701L69.51 65.4801L69.5 65.4701V58.6701L83.9 50.3601Z" fill="#898934"/>
<path d="M63.59 45.46L69.5 42.05L69.52 42.06L75.43 45.47L83.9 50.3601L69.5 58.67L55.1 50.3601L63.59 45.46Z" fill="url(#paint8_linear_4011_7620)"/>
<path d="M81.39 106.98V106.99L75.47 110.41V118.79H75.43L69.52 122.2V105.57L75.43 102.16H75.47V103.56L81.39 106.98Z" fill="#0A0C0E"/>
<path d="M81.36 130.44L75.47 133.84V142.22H75.43L69.52 145.63V129L75.43 125.59H75.47V127.04L81.36 130.44Z" fill="#898934"/>
<path d="M75.47 118.79V125.59H75.43L69.52 129L55.12 120.69L61.01 117.29L69.52 122.2L75.43 118.79H75.47Z" fill="#DEE773"/>
<path d="M69.52 129V145.63L55.12 137.32V130.5V120.69L69.52 129Z" fill="#BABC5E"/>
<path d="M55.12 113.87V107.07V97.26L69.52 105.57V122.2L61.01 117.29L55.12 113.89V113.87Z" fill="#313131"/>
<path d="M61.05 93.84L55.14 90.42L55.12 90.41V83.6V73.79L69.52 82.1V98.73L61.05 93.84Z" fill="#BABC5E"/>
<path d="M69.52 42.0501V42.0601L69.5 42.0501L63.59 45.4601V38.6401L55.11 33.7401L55.12 33.7301V26.8901L69.52 35.2101V42.0501Z" fill="#BABC5E"/>
<path d="M69.51 65.4801L63.61 68.8801V62.0601L55.1 57.1401V50.3601L69.5 58.6701V65.4701L69.51 65.4801Z" fill="#BABC5E"/>
<path d="M63.61 62.0601V68.8801V68.8901L55.12 73.7901V83.6001H55.1L49.21 87.0001V70.3701L63.61 62.0601Z" fill="#0A0C0E"/>
<path d="M63.59 38.6401V45.4601L55.1 50.3601V57.1401L49.21 53.7401L49.2 53.7501L49.19 53.7401V46.9501L63.59 38.6401Z" fill="#0A0C0E"/>
<path d="M55.14 90.4202L61.05 93.8402L55.12 97.2602V107.07H55.1L49.21 110.47V93.8502L55.13 90.4302L55.14 90.4202Z" fill="#898934"/>
<path d="M61.01 117.29L55.12 120.69V130.5H55.1L49.21 133.9V117.28L55.12 113.87V113.89L61.01 117.29Z" fill="#0A0C0E"/>
<path d="M55.14 90.4201L55.13 90.4301L49.21 93.8501L34.81 85.5301L40.73 82.1101L49.21 87.0001L55.1 83.6001H55.12V90.4101L55.14 90.4201Z" fill="#DEE773"/>
<path d="M49.21 117.28V133.9L34.81 125.59V118.78V108.96L49.21 117.28Z" fill="#313131"/>
<path d="M40.7 105.56L34.81 102.16V102.15V95.35V85.53L49.21 93.85V110.47L40.7 105.56Z" fill="#BABC5E"/>
<path d="M40.73 82.1101L34.83 78.7001L34.81 78.6901V71.8801V62.0601L49.21 70.3701V87.0001L40.73 82.1101Z" fill="#313131"/>
<path d="M49.2 53.7501L43.3 57.1501V50.3401L34.79 45.4201V38.6401L49.19 46.9501V53.7401L49.2 53.7501Z" fill="#313131"/>
<path d="M43.3 50.3401V57.1501L34.81 62.0601V71.8801H34.79L28.9 75.2801V58.6501L43.3 50.3401Z" fill="#898934"/>
<path d="M43.3 50.34L28.9 58.65L14.5 50.34L28.9 42.02L34.79 45.42L43.3 50.34Z" fill="url(#paint9_linear_4011_7620)"/>
<path d="M34.83 78.7002L40.73 82.1102L34.81 85.5302V95.3502H34.79L28.9 98.7502V82.1202L34.82 78.7102L34.83 78.7002Z" fill="#0A0C0E"/>
<path d="M40.7 105.56L34.81 108.96V118.78H34.79L28.9 122.18V105.55L34.81 102.15V102.16L40.7 105.56Z" fill="#898934"/>
<path d="M34.81 95.3501V102.15L28.9 105.55L14.5 97.2401L20.39 93.8401L28.9 98.7501L34.79 95.3501H34.81Z" fill="#DEE773"/>
<path d="M28.9 105.55V122.18L14.5 113.87V97.24L28.9 105.55Z" fill="#BABC5E"/>
<path d="M20.39 93.8401L14.5 90.4401V73.8101L28.9 82.1201V98.7501L20.39 93.8401Z" fill="#313131"/>
<path d="M20.43 70.3901L14.5 66.9601V50.3401L28.9 58.6501V75.2801L20.43 70.3901Z" fill="#BABC5E"/>
<path d="M116.12 127.02L121.95 130.39L130.49 135.33L139.03 130.4L144.86 127.03L144.89 127.01V120.24V110.39L136.41 105.49L130.49 102.07L130.48 102.08L124.58 105.48" stroke="#868686" stroke-miterlimit="10"/>
<path d="M124.58 105.49L116.09 110.39V120.2V127.01L116.11 127.02" stroke="#868686" stroke-miterlimit="10"/>
<path d="M116.09 110.39L130.49 118.7L144.89 110.39" stroke="#868686" stroke-miterlimit="10"/>
<path d="M130.49 118.7V135.33" stroke="#868686" stroke-miterlimit="10"/>
<path d="M165.21 108.5L171.14 111.92L179.62 107.03L185.54 103.61V86.9802L171.14 78.6702L165.19 82.1002L156.74 86.9802V93.8302" stroke="#868686" stroke-miterlimit="10"/>
<path d="M156.74 86.98L171.14 95.3L185.54 86.98" stroke="#868686" stroke-miterlimit="10"/>
<path d="M171.14 95.3V111.92" stroke="#868686" stroke-miterlimit="10"/>
<path d="M144.89 70.3202V70.3102V63.4902L130.49 55.1802L124.58 58.5902L116.09 63.4902V70.3302" stroke="#868686" stroke-miterlimit="10"/>
<path d="M116.09 63.49L130.49 71.81L144.89 63.49" stroke="#868686" stroke-miterlimit="10"/>
<path d="M130.49 71.8101V78.6501" stroke="#868686" stroke-miterlimit="10"/>
<path d="M165.19 82.1001V75.2201L150.79 66.9001L144.89 70.3101L136.39 75.2201V82.0701" stroke="#868686" stroke-miterlimit="10"/>
<path d="M136.39 75.22L150.79 83.53L165.19 75.22" stroke="#868686" stroke-miterlimit="10"/>
<path d="M150.79 83.53V90.41" stroke="#868686" stroke-miterlimit="10"/>
<path d="M144.87 120.23L144.89 120.24L150.81 123.67L159.29 118.77L165.21 115.35V108.5V98.7302L156.74 93.8302L150.81 90.4102L150.8 90.4202L144.87 93.8401L136.41 98.7302V105.49" stroke="#868686" stroke-miterlimit="10"/>
<path d="M136.41 98.73L150.81 107.04L165.21 98.73" stroke="#868686" stroke-miterlimit="10"/>
<path d="M150.81 107.04V123.67" stroke="#868686" stroke-miterlimit="10"/>
<path d="M124.56 82.1002V82.0602V75.2402L116.08 70.3402L110.17 66.9202H110.16L104.26 70.3302L95.76 75.2402V82.0202" stroke="#868686" stroke-miterlimit="10"/>
<path d="M95.76 75.24L110.16 83.55L124.56 75.24" stroke="#868686" stroke-miterlimit="10"/>
<path d="M110.16 83.55V90.34" stroke="#868686" stroke-miterlimit="10"/>
<path d="M144.87 93.8501V93.8401V86.9601L136.39 82.0701L130.49 78.6601L130.47 78.6501L124.56 82.0601L116.07 86.9601V93.7501" stroke="#868686" stroke-miterlimit="10"/>
<path d="M116.07 86.96L130.47 95.27L144.87 86.96" stroke="#868686" stroke-miterlimit="10"/>
<path d="M130.47 95.27V102.07" stroke="#868686" stroke-miterlimit="10"/>
<path d="M104.27 93.7501V86.9401L95.76 82.0201L89.87 78.6201L89.86 78.6301L83.92 82.0601L75.47 86.9401V95.3201V102.16V103.56L81.39 106.98L89.87 111.88L95.76 108.48" stroke="#868686" stroke-miterlimit="10"/>
<path d="M75.47 86.9402L89.87 95.2502L104.27 86.9402" stroke="#868686" stroke-miterlimit="10"/>
<path d="M89.87 95.25V111.88" stroke="#868686" stroke-miterlimit="10"/>
<path d="M124.58 105.49V105.48V98.6601L116.07 93.7501L110.17 90.3401H110.16L104.27 93.7501L95.77 98.6601V108.48V115.29L95.79 115.3L101.69 118.71L110.17 123.6L116.07 120.2" stroke="#868686" stroke-miterlimit="10"/>
<path d="M95.77 98.6602L110.17 106.97L124.58 98.6602" stroke="#868686" stroke-miterlimit="10"/>
<path d="M110.17 106.97V123.6" stroke="#868686" stroke-miterlimit="10"/>
<path d="M63.61 68.8901L55.12 73.7901V83.6001V90.4101L55.14 90.4201L61.05 93.8401L69.52 98.7301L75.43 95.3201" stroke="#868686" stroke-miterlimit="10"/>
<path d="M83.92 82.1V82.06V73.79L75.45 68.89L69.52 65.47L69.51 65.48L63.61 68.88" stroke="#868686" stroke-miterlimit="10"/>
<path d="M55.12 73.79L69.52 82.1L83.92 73.79" stroke="#868686" stroke-miterlimit="10"/>
<path d="M69.52 82.1001V98.7301" stroke="#868686" stroke-miterlimit="10"/>
<path d="M124.58 58.7001V58.5901V50.3801L110.17 42.0701L104.23 45.5001L95.77 50.3801V57.2301" stroke="#868686" stroke-miterlimit="10"/>
<path d="M95.77 50.3801L110.17 58.7001L124.58 50.3801" stroke="#868686" stroke-miterlimit="10"/>
<path d="M110.17 58.7002V66.9202" stroke="#868686" stroke-miterlimit="10"/>
<path d="M83.92 33.7101V26.8901L69.52 18.5801L55.12 26.8901V33.7301" stroke="#868686" stroke-miterlimit="10"/>
<path d="M55.12 26.8901L69.52 35.2101L83.92 26.8901" stroke="#868686" stroke-miterlimit="10"/>
<path d="M69.52 35.21V42.05" stroke="#868686" stroke-miterlimit="10"/>
<path d="M104.23 45.5V38.62L89.83 30.3L83.92 33.71V33.72L75.43 38.62V45.47" stroke="#868686" stroke-miterlimit="10"/>
<path d="M75.43 38.6201L89.83 46.9301L104.23 38.6201" stroke="#868686" stroke-miterlimit="10"/>
<path d="M89.83 46.9302V53.8102" stroke="#868686" stroke-miterlimit="10"/>
<path d="M104.25 70.3201V62.1301L95.77 57.2301L89.85 53.8101L89.84 53.8201L83.9 57.2501L75.45 62.1301V68.8901" stroke="#868686" stroke-miterlimit="10"/>
<path d="M75.45 62.1301L89.85 70.4401L104.25 62.1301" stroke="#868686" stroke-miterlimit="10"/>
<path d="M89.85 70.4402V78.6202" stroke="#868686" stroke-miterlimit="10"/>
<path d="M63.59 45.5001V45.4601V38.6401L55.11 33.7401L49.19 30.3201L34.79 38.6401V45.4201" stroke="#868686" stroke-miterlimit="10"/>
<path d="M34.79 38.6401L49.19 46.9501L63.59 38.6401" stroke="#868686" stroke-miterlimit="10"/>
<path d="M49.19 46.9502V53.7402" stroke="#868686" stroke-miterlimit="10"/>
<path d="M83.9 57.25V50.3601L75.43 45.47L69.52 42.06L69.5 42.05L63.59 45.46L55.1 50.3601V57.14" stroke="#868686" stroke-miterlimit="10"/>
<path d="M55.1 50.3601L69.5 58.6701L83.9 50.3601" stroke="#868686" stroke-miterlimit="10"/>
<path d="M69.5 58.6702V65.4702" stroke="#868686" stroke-miterlimit="10"/>
<path d="M43.3 57.15V50.34L34.79 45.42L28.9 42.02L14.5 50.34V66.96L20.43 70.39L28.9 75.28L34.79 71.88" stroke="#868686" stroke-miterlimit="10"/>
<path d="M14.5 50.3401L28.9 58.6501L43.3 50.3401" stroke="#868686" stroke-miterlimit="10"/>
<path d="M28.9 58.6501V75.2801" stroke="#868686" stroke-miterlimit="10"/>
<path d="M63.61 68.89V68.88V62.06L55.1 57.14L49.21 53.74L49.2 53.75L43.3 57.15L34.81 62.06V71.88V78.69L34.83 78.7L40.73 82.11L49.21 87L55.1 83.6" stroke="#868686" stroke-miterlimit="10"/>
<path d="M34.81 62.0601L49.21 70.3701L63.61 62.0601" stroke="#868686" stroke-miterlimit="10"/>
<path d="M49.21 70.3701V87.0001" stroke="#868686" stroke-miterlimit="10"/>
<path d="M121.88 130.51L116.09 133.86V143.67V150.47V150.49L121.93 153.86L130.49 158.8L139.05 153.86L144.88 150.5L144.89 150.49V143.72V133.86L139.09 130.51" stroke="#868686" stroke-miterlimit="10"/>
<path d="M116.09 133.86L130.49 142.17L144.89 133.86" stroke="#868686" stroke-miterlimit="10"/>
<path d="M130.49 142.17V158.8" stroke="#868686" stroke-miterlimit="10"/>
<path d="M165.21 131.98L171.14 135.4L179.65 130.48L185.54 127.08V110.46L179.63 107.04" stroke="#868686" stroke-miterlimit="10"/>
<path d="M165.22 115.35L171.14 118.77L185.54 110.46" stroke="#868686" stroke-miterlimit="10"/>
<path d="M171.14 118.77V135.4" stroke="#868686" stroke-miterlimit="10"/>
<path d="M144.87 143.71L144.89 143.72L150.81 147.14L159.32 142.23L165.21 138.83V138.78V131.98V122.2L159.29 118.78" stroke="#868686" stroke-miterlimit="10"/>
<path d="M144.89 127.09L150.81 130.51L165.21 122.2" stroke="#868686" stroke-miterlimit="10"/>
<path d="M150.81 130.51V147.14" stroke="#868686" stroke-miterlimit="10"/>
<path d="M81.39 106.99L75.47 110.41V118.79V125.59V127.04L81.36 130.44L89.87 135.35L95.76 131.95" stroke="#868686" stroke-miterlimit="10"/>
<path d="M75.47 110.41L89.87 118.72L95.79 115.31" stroke="#868686" stroke-miterlimit="10"/>
<path d="M89.87 118.72V135.35" stroke="#868686" stroke-miterlimit="10"/>
<path d="M101.76 118.67L101.69 118.71L95.77 122.13V131.95V138.75V138.76L101.66 142.16L110.17 147.07L116.07 143.67" stroke="#868686" stroke-miterlimit="10"/>
<path d="M95.77 122.13L110.17 130.45L116.11 127.02H116.12" stroke="#868686" stroke-miterlimit="10"/>
<path d="M110.17 130.45V147.07" stroke="#868686" stroke-miterlimit="10"/>
<path d="M61.06 93.8301L61.05 93.8401L55.12 97.2601V107.07V113.87V113.89L61.01 117.29L69.52 122.2L75.43 118.79" stroke="#868686" stroke-miterlimit="10"/>
<path d="M55.12 97.26L69.52 105.57L75.43 102.16" stroke="#868686" stroke-miterlimit="10"/>
<path d="M69.52 105.57V122.2" stroke="#868686" stroke-miterlimit="10"/>
<path d="M20.46 70.3701L20.43 70.3901L14.5 73.8101V90.4401L20.39 93.8401L28.9 98.7501L34.79 95.3501" stroke="#868686" stroke-miterlimit="10"/>
<path d="M14.5 73.8101L28.9 82.1201L34.82 78.7101" stroke="#868686" stroke-miterlimit="10"/>
<path d="M28.9 82.1201V98.7501" stroke="#868686" stroke-miterlimit="10"/>
<path d="M40.75 82.1001L40.73 82.1101L34.81 85.5301V95.3501V102.15V102.16L40.7 105.56L49.21 110.47L55.1 107.07" stroke="#868686" stroke-miterlimit="10"/>
<path d="M34.81 85.53L49.21 93.85L55.13 90.43" stroke="#868686" stroke-miterlimit="10"/>
<path d="M49.21 93.8501V110.47" stroke="#868686" stroke-miterlimit="10"/>
<path d="M121.88 153.94L116.09 157.29V167.1V173.92L130.49 182.23L144.89 173.92V167.15V157.29L139.09 153.94" stroke="#868686" stroke-miterlimit="10"/>
<path d="M116.09 157.29L130.49 165.6L144.89 157.29" stroke="#868686" stroke-miterlimit="10"/>
<path d="M130.49 165.6V182.23" stroke="#868686" stroke-miterlimit="10"/>
<path d="M165.21 155.41L171.14 158.83L185.54 150.51V133.89L179.65 130.48L179.63 130.47" stroke="#868686" stroke-miterlimit="10"/>
<path d="M165.22 138.78L171.14 142.2L185.54 133.89" stroke="#868686" stroke-miterlimit="10"/>
<path d="M171.14 142.2V158.83" stroke="#868686" stroke-miterlimit="10"/>
<path d="M144.87 167.14L144.89 167.15L150.81 170.57L165.21 162.26V155.41V145.63L159.32 142.23L159.29 142.21" stroke="#868686" stroke-miterlimit="10"/>
<path d="M144.89 150.52L150.81 153.94L165.21 145.63" stroke="#868686" stroke-miterlimit="10"/>
<path d="M150.81 153.94V170.57" stroke="#868686" stroke-miterlimit="10"/>
<path d="M81.39 130.42L81.36 130.44L75.47 133.84V142.22V150.47L89.87 158.78L95.76 155.38" stroke="#868686" stroke-miterlimit="10"/>
<path d="M75.47 133.84L89.87 142.15L95.77 138.75L95.79 138.74" stroke="#868686" stroke-miterlimit="10"/>
<path d="M89.87 142.15V158.78" stroke="#868686" stroke-miterlimit="10"/>
<path d="M101.76 142.1L101.66 142.16L95.77 145.56V155.38V162.19L110.17 170.5L116.07 167.1" stroke="#868686" stroke-miterlimit="10"/>
<path d="M95.77 145.56L110.17 153.88L116.09 150.47L116.12 150.45" stroke="#868686" stroke-miterlimit="10"/>
<path d="M110.17 153.88V170.5" stroke="#868686" stroke-miterlimit="10"/>
<path d="M61.06 117.26L61.01 117.29L55.12 120.69V130.5V137.32L69.52 145.63L75.43 142.22" stroke="#868686" stroke-miterlimit="10"/>
<path d="M55.12 120.69L69.52 129L75.43 125.59" stroke="#868686" stroke-miterlimit="10"/>
<path d="M69.52 129V145.63" stroke="#868686" stroke-miterlimit="10"/>
<path d="M20.46 93.8L20.39 93.84L14.5 97.24V113.87L28.9 122.18L34.79 118.78" stroke="#868686" stroke-miterlimit="10"/>
<path d="M14.5 97.24L28.9 105.55L34.81 102.15L34.82 102.14" stroke="#868686" stroke-miterlimit="10"/>
<path d="M28.9 105.55V122.18" stroke="#868686" stroke-miterlimit="10"/>
<path d="M40.75 105.53L40.7 105.56L34.81 108.96V118.78V125.59L49.21 133.9L55.1 130.5" stroke="#868686" stroke-miterlimit="10"/>
<path d="M34.81 108.96L49.21 117.28L55.12 113.87L55.13 113.86" stroke="#868686" stroke-miterlimit="10"/>
<path d="M49.21 117.28V133.9" stroke="#868686" stroke-miterlimit="10"/>
</g>
<defs>
<radialGradient id="paint0_radial_4011_7620" cx="0" cy="0" r="1" gradientUnits="userSpaceOnUse" gradientTransform="translate(1.19209e-05 200) rotate(-63.4349) scale(223.607)">
<stop stop-color="#42535A"/>
<stop offset="0.19728" stop-color="#2B3539"/>
<stop offset="1" stop-color="#0F1111"/>
</radialGradient>
<linearGradient id="paint1_linear_4011_7620" x1="136.41" y1="98.7252" x2="165.21" y2="98.7252" gradientUnits="userSpaceOnUse">
<stop stop-color="#97E6C5"/>
<stop offset="0.494063" stop-color="#DBE85F"/>
<stop offset="1" stop-color="#BBECB9"/>
</linearGradient>
<linearGradient id="paint2_linear_4011_7620" x1="136.39" y1="75.2151" x2="165.19" y2="75.2151" gradientUnits="userSpaceOnUse">
<stop stop-color="#97E6C5"/>
<stop offset="0.494063" stop-color="#DBE85F"/>
<stop offset="1" stop-color="#BBECB9"/>
</linearGradient>
<linearGradient id="paint3_linear_4011_7620" x1="95.77" y1="50.3851" x2="124.58" y2="50.3851" gradientUnits="userSpaceOnUse">
<stop stop-color="#97E6C5"/>
<stop offset="0.494063" stop-color="#DBE85F"/>
<stop offset="1" stop-color="#BBECB9"/>
</linearGradient>
<linearGradient id="paint4_linear_4011_7620" x1="95.77" y1="98.6551" x2="124.58" y2="98.6551" gradientUnits="userSpaceOnUse">
<stop stop-color="#97E6C5"/>
<stop offset="0.494063" stop-color="#DBE85F"/>
<stop offset="1" stop-color="#BBECB9"/>
</linearGradient>
<linearGradient id="paint5_linear_4011_7620" x1="95.76" y1="75.2352" x2="124.56" y2="75.2352" gradientUnits="userSpaceOnUse">
<stop stop-color="#97E6C5"/>
<stop offset="0.494063" stop-color="#DBE85F"/>
<stop offset="1" stop-color="#BBECB9"/>
</linearGradient>
<linearGradient id="paint6_linear_4011_7620" x1="55.12" y1="26.8951" x2="83.92" y2="26.8951" gradientUnits="userSpaceOnUse">
<stop stop-color="#97E6C5"/>
<stop offset="0.494063" stop-color="#DBE85F"/>
<stop offset="1" stop-color="#BBECB9"/>
</linearGradient>
<linearGradient id="paint7_linear_4011_7620" x1="55.12" y1="73.785" x2="83.92" y2="73.785" gradientUnits="userSpaceOnUse">
<stop stop-color="#97E6C5"/>
<stop offset="0.494063" stop-color="#DBE85F"/>
<stop offset="1" stop-color="#BBECB9"/>
</linearGradient>
<linearGradient id="paint8_linear_4011_7620" x1="55.1" y1="50.36" x2="83.9" y2="50.36" gradientUnits="userSpaceOnUse">
<stop stop-color="#97E6C5"/>
<stop offset="0.494063" stop-color="#DBE85F"/>
<stop offset="1" stop-color="#BBECB9"/>
</linearGradient>
<linearGradient id="paint9_linear_4011_7620" x1="14.5" y1="50.335" x2="43.3" y2="50.335" gradientUnits="userSpaceOnUse">
<stop stop-color="#97E6C5"/>
<stop offset="0.494063" stop-color="#DBE85F"/>
<stop offset="1" stop-color="#BBECB9"/>
</linearGradient>
<clipPath id="clip0_4011_7620">
<rect width="172.04" height="164.8" fill="white" transform="translate(14 18)"/>
</clipPath>
</defs>
</svg>
